<?xml version="1.0" encoding="UTF-8" standalone="no"?>
<!DOCTYPE svg PUBLIC "-//W3C//DTD SVG 1.1//EN" "http://www.w3.org/Graphics/SVG/1.1/DTD/svg11.dtd">
<svg width="100%" height="100%" viewBox="0 0 1213 305" version="1.1" xmlns="http://www.w3.org/2000/svg" xmlns:xlink="http://www.w3.org/1999/xlink" xml:space="preserve" xmlns:serif="http://www.serif.com/" style="fill-rule:evenodd;clip-rule:evenodd;stroke-linejoin:round;stroke-miterlimit:2;">
    <g transform="matrix(4.16667,0,0,4.16667,0,0)">
        <path d="M54.336,32.419C54.078,32.419 52.543,33.239 52.293,33.451C51.085,32.151 51.913,32.537 50.802,32.829C50.302,32.281 49.802,31.729 49.302,31.19C49.183,31.227 49.073,31.274 48.964,31.32C49.008,31.601 49.974,33.567 49.802,33.719C49.193,33.367 48.595,33.018 47.996,32.665C47.9,30.537 50.075,30.336 50.966,28.897C50.924,28.828 50.89,28.768 50.856,28.711C47.91,28.242 44.462,27.329 41.831,28.874C41.711,29.576 40.623,32.829 40.243,32.829C39.97,32.725 39.699,32.621 39.437,32.527C39.493,32.346 40.025,32.38 40.189,32.374C39.905,31.227 39.84,30.839 38.959,30.186C37.512,28.464 36.653,26.557 35.609,24.662C34.805,23.304 33.556,21.971 33.173,20.659C33.033,20.612 32.901,20.566 32.77,20.529C32.718,20.319 32.674,20.12 32.63,19.921C32.27,17.769 30.834,16.645 32.27,14.584C32.195,14.118 32.128,13.66 32.065,13.204C31.553,12.887 31.586,12.911 31.412,12.42C31.88,12.045 32.401,12.618 32.804,13.006C36.752,13.531 34.186,8.523 31.997,11.132C30.748,10.593 32.401,9.447 32.141,8.009C31.206,7.692 30.467,7.353 29.671,7.95C28.9,9.143 30.183,9.834 30.105,11.11C29.106,11.203 28.398,9.472 27.083,10.607C25.832,14.76 28.726,12.092 30.248,12.361C30.368,13.299 28.518,13.333 29.998,15.24C27.779,15.837 25.462,15.907 23.255,16.247C23.178,16.493 23.102,16.74 23.026,16.996C23.123,17.055 23.221,17.111 23.331,17.17C23.32,17.45 23.221,17.78 23.255,18.168L23.549,18.305C23.352,18.74 22.972,18.599 23.526,19.194C24.942,19.406 27.342,18.74 28.921,18.576C28.921,21.244 21.689,26.568 24.114,28.37C24.57,27.833 24.911,27.05 25.042,26.863C25.277,26.528 27.06,23.772 27.354,23.456C27.419,23.48 27.487,23.503 27.562,23.538C27.854,24.484 26.42,27.984 26.048,29.249C25.876,30.349 25.821,31.579 25.236,32.607C24.771,32.276 25.435,32.037 24.635,31.81C25.072,30.783 24.582,31.075 25.528,30.325C25.441,28.863 23.604,28.254 22.667,27.728C22.743,26.053 22.027,25.925 20.96,26.64C21.069,26.721 21.178,26.814 21.296,26.908L21.296,27.225C20.46,27.821 19.557,28.453 18.74,28.98C17.948,28.464 19.414,25.317 19.599,24.603C19.513,21.935 19.612,19.886 17.056,19.546C16.85,19.946 17.251,21.596 17.317,22.251C16.239,23.56 15.065,24.393 16.153,25.971C16.306,27.446 16.621,27.644 18.035,28.02C18.035,28.101 18.045,28.196 18.056,28.288L16.762,28.288C16.762,28.418 16.762,28.558 16.773,28.7C17.012,28.828 17.795,28.664 18.165,28.626C18.165,28.711 18.165,28.804 18.175,28.897C17.881,29.051 17.077,28.968 16.718,29.051C16.676,29.811 16.598,30.548 16.447,31.297C16.273,31.59 15.294,33.229 15.109,33.027C15.968,31.297 16.533,29.811 14.477,31.753C13.27,32.29 13.553,30.804 12.403,32.596C11.575,31.952 11.607,31.87 10.781,31.906C10.683,31.787 10.586,31.673 10.498,31.555C10.204,31.543 9.922,31.543 9.639,31.543C9.54,31.729 9.441,31.917 9.355,32.117C9.421,32.29 9.496,32.478 9.574,32.665C9.496,34.573 10.847,34.69 12.27,35.521C12.031,35.778 10.389,34.808 9.824,34.889C9.759,35.017 9.693,35.148 9.639,35.277L10.063,35.871C10.901,35.943 12.314,37.371 13.152,38.003C13.009,39.524 12.879,41.045 12.749,42.567C12.825,42.611 12.9,42.67 12.988,42.73C12.856,43.42 12.466,44.65 12.466,45.339C13.184,45.984 12.499,46.276 12.466,47.481C13.259,48.334 13.043,49.026 13.02,50.337C13.131,50.432 13.251,50.525 13.368,50.629C13.381,51.366 13.39,52.116 13.413,52.866C13.587,53.017 13.761,53.168 13.946,53.322C13.967,54.246 14.043,54.912 14.248,55.896C13.652,56.211 13.085,56.107 12.455,56.413L12.684,56.693C14.675,56.797 16.088,55.78 17.925,55.78C20.96,57.407 20.437,58.833 24.07,56.773C25.821,56.527 26.29,59.651 28.713,58.354C32.401,55.275 31.466,56.844 34.641,59.115C35.045,59.103 35.446,59.103 35.849,59.103C39.014,56.881 37.882,55.91 41.383,58.763C43.047,59.044 44.202,56.773 45.245,56.773C47.965,57.746 48.507,57.943 51.421,56.433C50.497,55.241 50.289,56.927 49.454,56.927C49.368,56.458 49.477,56.118 49.487,55.732C50.335,54.926 51.184,54.117 52.032,53.322L52.032,53.276C51.488,52.996 50.945,52.724 50.411,52.456C50.455,51.543 50.356,50.546 51.008,49.987C50.411,46.734 50.651,43.188 50.869,39.935C51.096,39.582 51.325,39.232 51.553,38.892C52.467,37.804 53.63,37.523 54.575,36.448L54.336,36.118C53.391,36.319 52.868,36.516 52.074,36.938C51.703,36.004 56.086,36.368 54.336,32.419ZM24.177,27.345L24.225,27.943C24.193,27.943 24.162,27.943 24.127,27.958C23.771,27.646 23.837,27.592 23.866,27.293C23.998,27.276 23.998,27.276 24.177,27.345ZM24.562,27.273C24.193,27.126 24.144,26.765 24.056,26.545C24.108,26.475 24.161,26.421 24.21,26.365C24.82,26.491 24.562,27.273 24.562,27.273ZM24.864,25.688C25.033,26.06 25.078,26.157 25.054,26.77C24.685,26.241 24.674,26.193 24.641,25.688L24.864,25.688ZM25.183,24.949C25.281,25.137 25.394,25.347 25.515,25.558C25.413,25.934 25.413,25.934 25.379,25.917C25.198,25.664 25.043,25.43 24.889,25.2L25.183,24.949ZM25.634,24.253C25.824,24.471 26.119,24.674 26.086,25.191C26.007,25.226 25.932,25.276 25.869,25.327C25.713,25.042 25.556,24.754 25.403,24.486C25.481,24.406 25.556,24.321 25.634,24.253ZM26.468,23.887C26.468,24.053 26.468,24.219 26.482,24.385C26.398,24.431 26.314,24.492 26.229,24.551C25.893,23.992 25.961,24.021 25.934,23.555C26.286,23.555 26.17,23.806 26.468,23.887ZM26.968,23.798C26.905,23.866 26.828,23.967 26.751,23.967L26.426,23.219C26.459,23.153 26.489,23.104 26.533,23.05C26.843,23.104 26.888,23.284 26.968,23.798ZM27.149,23.057C26.976,22.754 26.953,22.625 26.943,22.378C26.995,22.32 27.05,22.261 27.115,22.203C27.342,22.369 27.245,23.164 27.149,23.057ZM45.529,56.364C45.592,56.259 45.669,56.165 45.745,56.072C47.114,56.364 47.649,56.211 49.084,55.85C49.073,56.19 49.063,56.541 49.063,56.892L47.257,56.996C45.583,56.413 45.583,56.413 45.529,56.364ZM38.829,48.383C38.241,47.634 36.154,45.411 36.154,44.498C37.275,43.97 38.285,45.599 39.003,46.462C40.699,48.206 42.916,49.262 45.092,50.383C51.008,53.262 51.008,53.262 51.096,53.333C49.737,55.169 49.052,55.627 46.984,55.917C42.624,54.867 41.373,52.069 38.829,48.383ZM45.266,37.008C45.875,37.337 47.018,37.395 47.91,37.828C47.822,38.027 47.681,38.493 47.528,38.659C46.3,38.073 45.115,37.219 44.321,36.167C44.67,35.682 45.526,35.75 46.094,35.687C46.094,35.709 46.094,35.732 46.104,35.767C46.812,35.614 46.974,35.313 47.528,35.778L47.267,36.167C46.463,36.167 45.159,35.908 44.624,36.482C45.734,36.493 46.638,36.576 47.833,36.833C47.584,37.652 45.724,36.878 45.277,36.763C45.266,36.845 45.266,36.927 45.266,37.008ZM47.517,33.79C47.627,34.048 48.639,37.043 48.137,36.507C47.658,35.333 46.963,34.761 47.517,33.79ZM45.495,35.346C45.472,35.313 45.453,35.288 45.44,35.263C45.875,34.854 46.138,34.702 46.692,34.443C46.768,34.561 46.854,34.679 46.942,34.796C46.736,35.169 45.854,35.288 45.495,35.346ZM30.019,20.938C29.975,21.021 29.931,21.105 29.855,21.14C29.748,21.056 29.639,20.987 29.53,20.917C29.563,20.844 29.595,20.776 29.639,20.717C29.748,20.729 29.847,20.788 30.019,20.938ZM30.009,19.969C29.944,20.004 29.889,20.039 29.835,20.073L29.54,19.897L29.54,19.805C29.725,19.652 29.671,19.652 30.019,19.852C30.009,19.886 30.009,19.921 30.009,19.969ZM27.987,23.748C28.008,23.702 28.039,23.655 28.073,23.62C28.213,23.688 28.354,23.772 28.497,23.854C28.497,23.97 28.398,24.053 28.291,24.053C28.148,23.947 28.008,23.795 27.987,23.748ZM28.516,24.949C28.463,24.962 28.404,24.993 28.365,25.023C28.145,24.787 27.925,24.55 27.705,24.33C27.967,24.048 28.394,24.493 28.516,24.949ZM28.073,23.21C28.073,23.14 28.073,23.14 28.182,22.894C28.343,22.987 28.682,23.057 28.65,23.421C28.606,23.445 28.562,23.468 28.528,23.503C28.377,23.397 28.224,23.304 28.073,23.21ZM29.433,25.737C29.421,25.866 29.41,25.995 29.41,26.123C29.4,26.123 29.387,26.137 29.377,26.146C29.007,25.936 28.866,25.655 28.692,25.538L28.692,26.324C28.965,26.405 29.28,26.287 29.247,26.885C29.215,26.908 29.183,26.932 29.15,26.966L28.585,26.465C27.953,28.664 27.583,31.227 27.692,33.603C28.19,33.229 28.19,33.287 28.856,33.402C29.03,32.138 29.15,30.783 29.54,29.693C29.866,30.746 29.585,32.128 29.442,33.322C28.398,33.567 27.812,33.884 26.953,34.222C26.475,35.253 26.191,35.756 26.267,37.228C26.386,37.253 26.506,37.288 26.626,37.324L26.626,37.465C26.147,37.523 26.071,37.933 25.92,38.388L25.887,38.388C25.853,38.388 25.941,36.985 25.928,36.856C24.885,34.398 27.203,30.864 27.68,28.548C27.724,27.797 28.073,25.563 28.594,25.248C28.866,25.41 29.15,25.574 29.433,25.737ZM25.353,40.812L25.645,40.812C25.842,39.816 26.04,39.184 26.462,38.33C26.724,38.344 26.985,38.355 27.258,38.377C27.105,39.664 27.105,41.678 25.571,42.053C24.452,41.851 25.017,37.78 25.212,37.417C25.32,37.487 25.431,37.569 25.55,37.652C25.55,38.646 25.408,39.701 25.353,40.812ZM25.452,36.75C25.408,36.821 25.343,36.903 25.288,36.927C24.755,36.739 24.429,36.493 24.083,36.236C24.083,36.176 24.083,36.118 24.093,36.058C24.593,36.093 25.028,36.176 25.452,36.75ZM25.049,35.405C24.952,35.333 24.864,35.263 24.778,35.204C24.778,35.148 24.778,35.089 24.788,35.041C24.832,35.066 25.082,35.148 25.168,35.333C25.126,35.357 25.082,35.381 25.049,35.405ZM23.146,35.837L23.178,36.037C23.234,35.99 23.287,35.955 23.341,35.92C23.854,36.528 23.875,37.874 22.797,37.874C20.828,37.43 21.514,36.083 23.146,35.837ZM21.59,35.709C20.861,35.521 20.613,34.995 21.678,34.995C21.84,35.298 22.113,35.568 21.59,35.709ZM23.526,35.533C23.646,35.416 23.778,35.313 23.906,35.204C24.07,35.313 24.135,35.263 24.255,35.614C24.104,35.732 23.919,35.743 23.831,35.767C23.549,35.58 23.549,35.58 23.526,35.533ZM23.919,34.433C24.049,34.35 24.179,34.271 24.32,34.2C24.408,34.364 24.408,34.364 24.463,34.573C24.419,34.633 24.385,34.702 24.351,34.773L24.309,34.773C24.19,34.749 24.07,34.725 23.952,34.714L23.919,34.433ZM24.278,36.774C24.385,36.833 24.505,36.891 24.627,36.948C24.627,36.973 24.398,38.787 24.267,38.646C23.69,37.44 23.711,37.92 24.278,36.774ZM29.106,35.357C29.106,35.756 28.224,35.955 27.932,36.024L27.802,35.92C28.279,35.568 28.474,35.499 29.106,35.357ZM28.736,35.124C28.551,35.169 28.008,35.37 27.909,35.333C27.888,35.288 27.865,35.239 27.844,35.204C28.224,35.006 28.343,34.808 28.835,34.842L28.736,35.124ZM28.856,36.319C28.627,36.6 28.203,36.809 27.898,36.809L27.802,36.669C28.117,36.423 28.409,35.99 28.856,36.319ZM27.825,37.266C27.909,37.277 27.997,37.312 28.182,37.44C28.159,37.44 28.138,37.44 28.127,37.452L27.802,37.312C27.802,37.288 27.812,37.277 27.825,37.266ZM28.312,38.192C28.257,38.25 28.213,38.284 28.148,38.284C28.028,38.2 27.919,38.132 27.812,38.062L27.812,37.874C28.039,37.711 28.127,37.92 28.312,38.192ZM27.997,38.809C27.953,38.845 27.909,38.88 27.875,38.916C27.789,38.845 27.714,38.775 27.638,38.704C27.638,38.646 27.638,38.6 27.648,38.552C27.758,38.635 27.875,38.716 27.997,38.809ZM27.55,39.055C28.182,39.327 27.888,39.711 27.854,39.677C27.464,39.407 27.333,39.371 27.55,39.055ZM27.963,40.423C27.942,40.471 27.919,40.531 27.898,40.588C27.789,40.565 27.68,40.542 27.583,40.531C27.541,40.437 27.506,40.355 27.474,40.274C27.659,40.145 27.737,40.216 27.963,40.423ZM27.43,37.558C27.409,37.558 27.388,37.558 27.365,37.569C27.3,37.523 27.235,37.476 27.18,37.44C27.18,37.253 27.245,37.253 27.31,37.125C27.159,37.114 27.006,37.101 26.865,37.101C26.493,35.885 26.701,35.416 27.016,34.281C27.758,34.034 28.465,33.778 29.314,33.778C29.335,33.801 29.356,33.836 29.377,33.871C28.65,35.051 27.289,34.059 27.43,35.943C27.333,36.482 26.976,36.6 27.487,36.938C27.497,37.138 27.573,37.288 27.43,37.558ZM27.258,37.885L27.289,38.083C27.235,38.132 27.191,38.177 27.149,38.236C27.083,38.132 27.029,38.027 26.976,37.92L27.258,37.885ZM27.825,41.958C27.825,42.018 27.825,42.085 27.833,42.157C27.779,42.205 27.779,42.205 27.714,42.205C27.43,42.063 27.342,41.889 27.224,41.723C27.235,41.654 27.245,41.596 27.258,41.536C27.529,41.596 27.529,41.782 27.825,41.958ZM27.745,42.765L27.714,43.022C27.659,43.011 27.604,43.011 27.55,43.011C27.235,42.966 27.3,42.777 27.224,42.636C27.43,42.356 27.43,42.46 27.745,42.765ZM27.625,43.958C27.268,43.738 26.844,43.457 26.844,43.118C27.128,43.118 27.68,43.457 27.625,43.958ZM27.365,44.661C27.258,44.65 27.149,44.65 27.04,44.65C26.964,44.568 26.888,44.487 26.821,44.405C26.876,44.309 26.976,44.195 27.06,44.136C27.224,44.286 27.333,44.298 27.365,44.661ZM19.057,42.685C19.013,42.685 18.969,42.685 18.925,42.695C17.132,42.378 16.426,38.951 17.35,37.652C18.85,36.153 19.721,41.386 19.057,42.685ZM17.47,36.739C17.415,36.621 17.361,36.507 17.306,36.399C17.361,36.319 17.426,36.246 17.491,36.176C17.512,36.236 17.642,36.927 17.47,36.739ZM17.109,37.219C17.035,37.031 16.957,36.856 16.892,36.68C17.035,36.551 17.035,36.551 17.077,36.551C17.22,36.703 17.228,37.347 17.109,37.219ZM23.906,46.452C23.778,46.838 23.549,48.511 23.091,48.511C20.916,47.891 18.774,46.497 17.001,45.235C17.426,44.592 17.839,44.053 18.339,43.491C18.828,43.491 23.123,45.515 23.906,46.452ZM16.044,45.376C17.772,46.289 19.536,47.494 21.395,48.523C21.35,48.946 21.222,49.39 21.059,49.846C21.027,49.846 20.991,49.846 20.971,49.857C18.948,48.982 17.077,48.17 15.326,47.001C15.326,46.348 15.75,45.832 16.044,45.376ZM14.847,46.639C14.043,45.901 13.652,45.574 13.228,44.685C13.566,44.182 13.457,43.772 13.696,43.292C14.414,43.762 14.99,44.169 15.685,44.848C15.685,45.247 14.859,46.639 14.847,46.639ZM17.251,49.365C18.415,48.745 22.079,50.723 23.669,51.238C24.364,51.519 24.179,51.683 23.841,52.385L23.778,52.385C22.493,51.929 17.98,50.935 17.251,49.365ZM21.244,52.235C21.244,52.527 20.991,53.661 20.569,53.661C19.013,53.251 17.47,52.385 16.195,51.578C16.195,51.158 16.38,50.546 16.556,50.253C18.165,50.804 19.589,51.39 21.244,52.235ZM29.095,55.875C29.051,55.875 29.018,55.884 28.986,55.896C26.475,55.429 23.885,54.808 21.525,54.081C21.548,53.568 21.645,53.124 21.787,52.69C22.862,52.69 24.635,53.46 25.779,53.776C27.258,53.964 30.03,53.345 29.095,55.875ZM24.755,52.724C24.603,52.397 24.702,51.835 24.723,51.601C27.279,51.601 29.866,52.255 32.554,52.328C32.749,52.351 32.934,52.351 33.184,52.527C33.184,52.866 33.184,53.216 33.197,53.568C32.945,53.613 32.695,53.672 32.445,53.732C29.921,53.544 27.073,53.604 24.755,52.724ZM29.085,50.057C29.095,50.432 29.139,50.862 29.095,51.366C29.062,51.356 29.03,51.356 28.999,51.356C26.355,51.192 24.135,50.654 21.623,49.999C21.689,49.425 21.798,49.084 21.972,48.641C24.343,49.238 26.649,49.588 29.085,50.057ZM23.994,48.675C23.994,47.962 24.309,47.12 24.647,46.545C26.724,46.627 29.018,46.838 31.162,47.143C31.445,47.293 31.216,49.648 31.195,49.624C28.835,49.376 26.105,49.472 23.994,48.675ZM35.87,50.492C35.925,50.819 35.935,51.214 35.893,51.601C35.383,51.588 34.88,51.588 34.381,51.588C32.999,51.588 30.672,51.801 29.509,51.39L29.54,50.057C31.206,50.057 34.381,49.765 35.87,50.492ZM41.558,53.183C39.676,53.755 36.219,53.929 34.326,53.929C33.468,53.649 33.728,53.076 33.749,52.304C35.859,52.057 38.066,52.176 40.254,52.244L40.254,51.751C39.144,51.751 36.447,52.409 36.447,50.782C36.687,50.619 36.991,50.723 37.338,50.759C37.262,50.887 37.187,51.016 37.121,51.158C37.176,51.238 37.241,51.321 37.306,51.414C37.545,51.414 37.785,51.414 38.024,51.426L37.96,50.782C37.827,50.759 37.707,50.735 37.59,50.723C40.232,50.304 39.905,50.546 41.558,53.183ZM38.675,49.659L37.809,49.473C37.6,48.846 37.178,47.939 37.502,47.915C37.635,47.905 38.644,49.11 38.776,49.529C38.741,49.565 38.709,49.612 38.675,49.659ZM32.073,47.481C33.673,47.481 35.25,47.293 36.903,47.716C36.916,48.29 36.926,48.873 36.947,49.459C36.664,49.505 36.382,49.565 36.109,49.624C34.685,49.529 33.283,49.565 31.933,49.402C31.933,48.793 31.87,47.845 32.073,47.481ZM34.021,37.612L34.021,37.532C34.434,37.316 34.434,37.381 35.002,37.776L35.002,37.86L34.818,38.006C34.375,37.923 34.219,37.792 34.021,37.612ZM34.172,38.206C34.441,38.288 34.711,38.381 34.998,38.48C34.981,38.593 34.981,38.725 34.981,38.852C34.908,38.837 34.833,38.837 34.758,38.837C34.355,38.771 34.053,38.498 34.172,38.206ZM34.004,36.871C34.361,36.871 34.479,36.783 34.889,37.094C34.8,37.168 34.735,37.24 34.666,37.309C34.328,37.168 34.105,37.02 34.004,36.871ZM33.984,36.402L33.827,36.064C34.157,35.963 34.417,36.159 34.826,36.361L34.826,36.571C34.785,36.571 34.744,36.586 34.706,36.599C34.458,36.529 34.223,36.457 33.984,36.402ZM33.76,35.473C33.744,35.368 33.744,35.28 33.744,35.192C34.052,35.14 34.262,35.316 34.573,35.596C34.476,35.665 34.394,35.753 34.309,35.841C34.118,35.718 33.938,35.596 33.76,35.473ZM33.647,34.799C33.647,34.693 33.647,34.59 33.663,34.502C33.968,34.59 34.274,34.678 34.591,34.768C34.424,34.918 34.145,34.948 34.038,34.964C33.896,34.904 33.772,34.842 33.647,34.799ZM33.566,33.999C33.434,33.554 34.066,33.918 34.24,33.988C34.24,34.034 34.251,34.257 34.163,34.211C33.957,34.142 33.762,34.071 33.566,33.999ZM33.474,33.228C33.664,33.154 33.976,32.89 34.288,33.138L34.288,33.301L34.083,33.431C33.826,33.418 33.566,33.373 33.474,33.228ZM33.461,32.314C33.645,32.314 33.826,32.328 34.011,32.34C34.055,32.428 34.101,32.511 34.148,32.61C34.09,32.66 34.033,32.722 33.976,32.783L33.598,32.708C33.554,32.574 33.508,32.439 33.461,32.314ZM33.133,31.827L33.133,31.613C33.411,31.678 33.692,31.746 33.985,31.827C33.862,31.962 33.829,32.011 33.706,32.011C33.507,31.945 33.321,31.879 33.133,31.827ZM32.848,30.874C32.885,30.819 32.919,30.761 32.953,30.722C33.202,30.912 33.446,31.12 33.694,31.329C33.64,31.383 33.589,31.443 33.552,31.52L33.467,31.52C33.008,31.329 33.008,31.12 32.848,30.874ZM33.511,30.721C33.309,30.574 33.108,30.419 32.922,30.285L33.435,30.186L33.73,30.453C33.73,30.638 33.588,30.706 33.511,30.721ZM32.724,29.807C32.724,29.594 32.781,29.627 32.838,29.505C33.092,29.627 33.347,29.749 33.6,29.885C33.444,30.052 33.276,30.005 33.12,30.023C32.98,29.946 32.852,29.87 32.724,29.807ZM32.586,29.201C32.566,29.115 32.546,29.03 32.546,28.962C32.77,28.962 33.012,28.962 33.256,28.985C33.298,29.07 33.337,29.158 33.377,29.269C33.337,29.269 33.298,29.269 33.256,29.291C33.032,29.246 32.809,29.224 32.586,29.201ZM32.365,28.502C32.661,28.401 32.887,28.322 33.241,28.561C33.111,28.704 33.035,28.722 32.923,28.745L32.365,28.502ZM32.303,27.733C32.533,27.487 32.827,27.748 33.151,27.977C33.101,28.029 33.054,28.083 33.006,28.154C32.858,28.137 32.713,28.137 32.581,28.137C32.48,27.995 32.385,27.854 32.303,27.733ZM32.837,25.386C33.184,25.866 33.652,27.634 34.131,27.925C34.272,29.459 35.316,30.724 35.752,32.315C35.404,32.513 34.74,33.134 34.511,33.18C34.152,32.794 32.934,26.311 32.837,25.386ZM35.958,34.725C35.958,35.124 35.578,35.277 35.282,35.509C35.282,35.871 35.229,36.295 35.131,36.728C35.099,36.728 35.076,36.739 35.055,36.75C35.022,36.739 34.988,36.728 34.967,36.715C34.935,36.157 34.541,34.66 34.868,34.306C35.271,34.374 35.511,34.433 35.958,34.725ZM35.001,33.812C34.988,33.719 34.98,33.626 34.98,33.544C35.763,33.614 36.24,34.059 36.926,34.643C36.882,34.69 36.838,34.739 36.773,34.739C36.174,34.424 35.588,34.118 35.001,33.812ZM35.189,39.33C35.163,39.404 35.021,39.509 34.939,39.542C34.399,39.464 34.468,39.33 34.247,38.959C34.647,38.99 34.746,38.972 35.189,39.33ZM34.868,39.864C34.967,39.944 35.076,40.028 35.185,40.11C35.141,40.181 35.099,40.25 35.055,40.332L34.641,40.332C34.566,40.24 34.501,40.145 34.435,40.062C34.576,39.993 34.719,39.919 34.868,39.864ZM35.349,40.834C35.349,40.906 35.185,41.223 35.131,41.198C34.793,41.056 34.73,40.906 34.587,40.718C34.904,40.67 34.967,40.635 35.349,40.834ZM35.49,41.56C35.479,41.583 35.469,41.607 35.456,41.642L35.383,41.642C35.219,41.596 35.055,41.55 34.891,41.514C35.089,41.386 35.229,41.326 35.49,41.56ZM35.534,42.216C35.511,42.309 35.446,42.556 35.383,42.521C35.196,42.449 35.011,42.393 34.837,42.333C34.826,42.262 34.826,42.192 34.826,42.121C34.967,41.969 35.339,41.934 35.534,42.216ZM34.891,42.73C34.98,42.73 35.055,42.695 35.24,42.849L35.24,42.907C35.152,42.966 35.068,42.987 35.001,42.987C34.956,42.976 34.914,42.966 34.88,42.966C34.88,42.883 34.88,42.798 34.891,42.73ZM36.773,43.502C36.653,43.678 34.608,44.977 34.587,44.964C34.423,44.696 34.259,44.428 34.108,44.169C34.891,43.702 35.849,42.798 36.773,43.502ZM34.108,44.65C34.119,44.733 34.131,44.814 34.152,44.897C33.913,45.224 33.913,45.224 33.892,45.211C33.762,45.141 33.629,45.084 33.499,45.025C33.543,44.521 33.619,44.544 34.108,44.65ZM35.763,45.118C36.067,45.528 36.208,45.785 36.437,46.393C35.708,46.616 35.12,46.663 34.423,46.673C33.804,46.651 33.228,46.571 32.728,46.452L32.76,41.386C32.661,39.395 31.466,27.412 31.989,26.849C32.109,27.119 32.749,26.826 32.869,27.225C32.837,27.272 32.804,27.317 32.77,27.377C32.411,27.19 32.294,27.225 31.979,27.225C32.174,29.331 32.924,31.19 33.065,33.462C33.129,34.023 33.424,34.234 33.304,35.006C33.358,35.089 33.424,35.169 33.489,35.253C32.934,37.347 35.74,41.536 34.032,43.738C33.749,43.97 33.468,44.205 33.197,44.438C33.197,44.789 33.197,45.141 33.205,45.492C34.62,46.019 34.392,45.306 35.763,45.118ZM32.421,23.71C32.383,23.674 32.165,23.768 32.132,23.786C32.027,23.747 31.723,23.603 31.64,23.567C31.723,23.474 32.007,23.317 32.421,23.71ZM31.989,23.092C31.918,23.054 31.651,22.957 31.651,22.883C31.89,22.672 31.825,22.648 32.141,22.928C32.109,22.987 32.033,23.08 31.989,23.092ZM27.896,31.791C28.119,31.551 28.548,31.725 28.814,32.014C28.771,32.077 28.739,32.157 28.711,32.237L28.339,32.237C28.193,32.11 28.045,31.998 27.896,31.887L27.896,31.791ZM28.685,32.899C28.685,32.915 28.685,32.93 28.7,32.948C28.623,32.998 28.549,33.062 28.486,33.131L27.838,32.733C27.823,32.599 27.823,32.599 27.871,32.517C28.133,32.634 28.409,32.767 28.685,32.899ZM28.747,31.718C28.279,31.471 28.008,31.227 28.291,30.852C28.398,30.922 29.247,31.367 28.747,31.718ZM27.95,30.16C28.212,29.878 28.661,30.27 29.01,30.552C28.993,30.609 28.976,30.664 28.976,30.735C28.906,30.735 28.835,30.756 28.768,30.773C28.316,30.681 28.158,30.366 27.95,30.16ZM28.454,29.215C28.663,29.437 29.556,30.551 28.897,30.199C28.754,30.097 27.865,29.215 28.454,29.215ZM28.851,29.351C28.579,28.932 28.592,28.899 28.623,28.549C28.836,28.686 29.123,28.951 29.123,29.387C29.03,29.369 28.933,29.351 28.851,29.351ZM28.52,28.136C28.583,28.061 28.652,27.987 28.722,27.932C28.928,28.081 29.133,28.227 29.356,28.394C29.356,28.433 29.256,28.653 29.203,28.668C28.964,28.486 28.739,28.302 28.52,28.136ZM28.591,27.334C28.638,27.229 28.689,27.14 28.754,27.055C28.964,27.159 29.177,27.262 29.403,27.367C29.419,27.453 29.338,27.894 29.303,27.872C29.058,27.681 28.817,27.508 28.591,27.334ZM29.563,28.22C29.734,28.562 29.824,29.083 29.563,29.367C29.551,29.353 29.54,29.343 29.54,29.331C29.521,29.256 29.228,28.22 29.563,28.22ZM30.248,29.974C30.727,30.045 31.162,30.092 31.716,30.336C31.706,30.42 31.706,30.502 31.706,30.583C31.422,30.606 31.141,30.64 30.868,30.675C30.639,30.652 30.412,30.63 30.183,30.616C29.985,30.242 30.105,30.232 30.248,29.974ZM31.802,31.378C31.89,35.124 32.205,38.937 32.073,42.744C32.02,42.858 31.966,42.976 31.922,43.093C31.445,43.255 30.847,43.173 30.399,43.198C30.149,43.128 29.91,43.06 29.671,43.001C29.79,39.069 29.921,35.135 30.051,31.203C30.695,31.18 31.052,31.156 31.802,31.378ZM32.607,24.165C32.589,24.272 32.571,24.375 32.571,24.482C32.515,24.482 32.456,24.482 32.397,24.494C32.173,24.375 31.945,24.26 31.732,24.143C31.791,24.083 31.845,24.026 31.923,23.967C32.337,23.967 32.509,24.129 32.607,24.165ZM32.713,25.038C32.635,25.127 32.312,25.172 32.185,25.172C32.135,25.1 31.874,25.049 31.84,24.996C31.936,24.929 32.383,24.788 32.56,24.788L32.713,25.038ZM32.044,25.703C32.109,25.669 32.174,25.633 32.247,25.61C32.38,25.726 32.52,25.843 32.661,25.971C32.608,26.018 32.554,26.077 32.499,26.137C32.216,26.101 31.966,25.971 32.044,25.703ZM32.837,26.569C32.816,26.707 32.534,26.827 32.488,26.827C32.337,26.734 32.185,26.638 32.051,26.569C32.118,26.453 32.185,26.358 32.269,26.264C32.446,26.358 32.643,26.453 32.837,26.569ZM29.692,44.415C29.486,44.229 29.498,44.217 29.52,44.077C30.03,43.925 31.956,43.468 32.096,44.265C31.302,44.286 30.368,44.415 29.692,44.415ZM28.896,24.519C28.977,24.519 29.28,24.806 29.442,24.944C29.442,25.058 29.442,25.17 29.456,25.297C29.42,25.282 29.383,25.282 29.361,25.282C29.152,25.282 28.907,24.557 28.896,24.519ZM28.932,23.881C29.118,23.681 29.174,23.805 29.514,23.967L29.582,24.506C29.559,24.506 29.548,24.519 29.537,24.532C28.968,23.955 28.968,23.955 28.932,23.881ZM29.77,23.504C29.723,23.504 29.676,23.504 29.629,23.516C29.442,23.341 29.258,23.166 29.082,22.992C29.082,22.69 29.716,23.04 29.77,23.504ZM29.171,21.021L29.106,21.021C29.085,21.01 29.062,20.997 29.051,20.997C29.085,20.904 29.118,20.81 29.161,20.717C29.314,20.729 29.291,20.844 29.171,21.021ZM29.28,22.125C29.328,22.088 29.372,22.052 29.433,22.015C29.582,22.163 29.687,22.301 29.979,22.452C29.943,22.515 29.91,22.577 29.885,22.639L29.804,22.639C29.503,22.416 29.409,22.315 29.28,22.125ZM29.4,21.348L29.704,21.348C29.847,21.524 30.149,21.699 29.91,21.959C29.52,21.748 29.53,21.63 29.4,21.348ZM30.389,19.734C30.651,19.64 30.759,19.57 31.13,19.593C31.586,21.689 31.933,26.978 31.399,29.659C31.162,29.659 30.933,29.659 30.704,29.669C30.54,29.599 30.378,29.531 30.215,29.471C29.683,26.602 30.225,22.613 30.389,19.734ZM31.651,21.735C31.771,21.865 32.054,22.275 31.758,22.425C31.662,22.109 31.5,21.899 31.651,21.735ZM31.917,21.594C32.078,21.677 32.257,21.757 32.435,21.838C32.421,21.917 32.421,21.999 32.421,22.094C32.363,22.094 32.303,22.094 32.257,22.108C32.087,22.072 31.707,21.819 31.917,21.594ZM32.925,22.55C32.846,22.62 32.786,22.705 32.719,22.79C32.515,22.653 32.327,22.533 32.139,22.418C32.345,22.314 32.831,22.252 32.925,22.55ZM33.453,23.293C33.313,23.4 33.313,23.4 33.118,23.454C32.575,23.311 31.948,23.247 32.644,23C32.974,23.126 33.178,23.188 33.453,23.293ZM33.556,23.783C33.434,23.889 33.314,24.029 33.205,24.029C32.913,23.959 32.869,23.854 32.77,23.712C33.096,23.62 33.239,23.445 33.556,23.783ZM33.815,24.478C33.8,24.51 33.8,24.557 33.8,24.608L33.343,24.755C32.67,24.641 32.729,24.491 33.128,24.18C33.328,24.28 33.434,24.394 33.815,24.478ZM34.114,25.306C34.155,25.363 33.913,25.36 33.828,25.36C33.508,25.314 33.198,25.007 33.088,25.155C33.392,24.747 33.841,24.923 34.114,25.306ZM34.409,25.796C34.394,25.902 34.378,26.026 34.378,26.147C34.31,26.147 34.239,26.147 34.168,26.162C33.757,26.101 33.654,26.198 33.457,26.018C33.539,25.848 33.641,25.697 33.739,25.543C33.95,25.71 34.181,25.626 34.409,25.796ZM34.624,26.635L34.624,26.763C34.455,26.948 34.231,26.893 34.026,26.87L33.821,26.429C34.059,26.34 34.349,26.468 34.624,26.635ZM34.935,27.476L34.081,27.46L33.966,27.339C34.399,27.08 34.469,27.051 34.935,27.476ZM35.207,27.984C35.092,28.108 34.725,28.108 34.645,28.108L34.215,27.899C34.227,27.812 34.246,27.744 34.261,27.673C34.564,27.778 34.883,27.882 35.207,27.984ZM35.351,28.666C35.32,28.701 35.286,28.754 35.255,28.806L35.111,28.806C34.98,28.718 34.851,28.629 34.736,28.543C34.864,28.333 35.174,28.263 35.351,28.666ZM35.696,29.39L35.565,29.496C35.25,29.459 35.164,29.377 35.034,29.238C35.108,29.143 35.229,28.922 35.349,28.922C35.425,29.002 35.62,29.143 35.696,29.39ZM36.066,29.95C36.016,30.003 35.965,30.073 35.934,30.143L35.821,30.143C35.562,30.039 35.322,29.95 35.078,29.865C35.272,29.656 35.71,29.779 36.066,29.95ZM36.36,30.442C36.36,30.485 36.36,30.529 36.375,30.572C36.297,30.657 36.214,30.774 36.094,30.774C35.768,30.731 35.62,30.718 35.539,30.529C35.797,30.442 35.985,30.266 36.36,30.442ZM36.466,31.198C36.333,31.233 36.204,31.269 36.075,31.321C35.861,31.181 35.583,31.06 35.65,30.899C36.122,30.899 36.163,30.809 36.466,31.198ZM36.759,31.634L36.805,31.791L35.913,31.791C35.913,31.737 35.931,31.685 35.947,31.654C36.217,31.634 36.488,31.634 36.759,31.634ZM37.139,32.345C37.116,32.419 37.116,32.419 36.84,32.544C36.675,32.448 36.513,32.345 36.376,32.269C36.465,32.198 36.558,32.124 36.652,32.073C36.813,32.147 36.973,32.251 37.139,32.345ZM39.068,38.121C38.906,38.192 38.741,38.26 38.59,38.344C37.577,38.097 37.382,38.014 36.849,37.09C36.979,36.785 37.111,36.482 37.252,36.186C37.317,36.176 37.393,36.176 37.468,36.176C37.447,37.065 37.176,37.253 38.079,37.64C38.1,37.357 37.928,37.228 37.85,37.149C37.905,36.774 38.155,36.507 38.327,36.236C37.882,35.896 37.752,35.65 37.317,35.405C36.859,35.427 35.916,35.803 35.633,35.65C35.62,35.58 35.62,35.509 35.62,35.45C36.315,34.889 36.828,34.961 37.72,34.901C37.275,33.812 36.294,33.603 35.414,33.145C35.404,33.087 35.404,33.087 35.456,32.959C38.111,33.672 38.805,35.169 39.068,38.121ZM35.893,36.13C35.969,36.13 36.023,36.167 36.164,36.246C35.925,36.507 35.794,36.785 35.62,37.101C35.588,37.101 35.555,37.101 35.521,37.114L35.456,37.114C35.565,36.728 35.708,36.423 35.893,36.13ZM36.828,35.931C36.838,35.931 36.849,35.931 36.872,35.943C36.872,36.319 36.676,36.927 36.328,37.16C36.273,37.114 36.219,37.065 36.174,37.02L36.828,35.931ZM39.241,38.67C38.795,39.021 38.448,39.173 38.079,39.371C38.327,39.792 38.579,40.225 38.839,40.66C38.795,40.718 38.753,40.775 38.72,40.847C37.85,40.824 37.468,40.998 36.817,41.093C36.817,41.407 36.197,41.806 35.925,41.889C35.925,40.319 35.49,38.937 35.261,37.523C36.099,36.621 37.457,38.355 38.1,39.01C38.503,38.834 38.764,38.752 39.241,38.67ZM39.754,44.942L39.655,44.942C38.317,44.673 38.155,44.087 37.415,43.022L36.252,42.987C36.24,42.966 36.231,42.951 36.219,42.941C38.024,42.112 36.916,43.153 38.35,43.06C38.155,42.798 37.96,42.556 37.775,42.309C37.21,42.356 36.643,42.403 36.088,42.46C36.034,42.403 35.979,42.356 35.925,42.309C36.752,42.053 37.046,41.91 38.066,41.91L38.426,42.368C38.545,42.356 38.675,42.356 38.805,42.356C37.949,41.536 37.894,41.55 36.903,41.419L36.903,41.303C37.21,41.056 38.111,41.173 38.61,41.173C39.317,42.602 39.983,43.164 39.754,44.942ZM46.039,50.466C46.005,50.455 45.987,50.455 45.964,50.455C45.04,50.138 44.592,49.811 43.918,49.262C46.039,47.962 45.823,47.564 46.333,49.787C46.02,50.01 46.039,50.072 46.039,50.466ZM47.681,51.273L47.595,51.273C47.007,51.074 46.658,50.853 46.278,50.546C46.278,49.765 48.748,49.801 47.681,51.273ZM43.191,48.921C42.112,48.29 41.558,47.811 40.766,46.976C41.688,46.557 42.57,46.673 43.592,46.709C43.733,46.943 44.462,48.112 44.342,48.501C44.017,48.595 43.408,48.921 43.191,48.921ZM39.97,46.298C39.84,46.181 39.592,46.117 39.601,45.95C39.638,45.204 41.339,45.77 42.176,45.877C41.285,46.04 40.069,46.298 39.97,46.298ZM41.602,44.063L41.633,44.063C41.7,44.369 41.537,44.509 41.331,44.802L41.232,44.626C41.35,44.438 41.472,44.251 41.602,44.063ZM40.808,44.908C40.785,44.908 40.775,44.908 40.766,44.917C40.472,44.487 40.852,44.169 41.047,43.876C41.112,43.914 41.188,43.948 41.266,43.993C41.266,44.063 40.884,44.733 40.808,44.908ZM40.21,45.188L40.144,45.188C40.102,45.153 40.056,45.128 40.014,45.106C40.014,44.696 40.243,44.323 40.363,43.97C40.405,44.008 40.449,44.042 40.503,44.077C40.482,44.487 40.395,44.814 40.21,45.188ZM39.089,39.919C40.254,39.348 40.34,40.203 41.276,41.337C41.276,41.713 40.503,43.643 40.417,43.596C40.014,43.303 40.21,43.104 40.319,42.823C39.895,42.003 39.089,40.788 39.089,39.919ZM42.658,38.436C42.885,38.587 43.124,38.74 43.364,38.903C43.364,38.903 42.645,43.83 41.93,43.444C41.461,42.941 43.754,39.252 42.874,38.694C42.221,39.278 41.776,42.227 41.22,43.376C41.047,43.376 41.091,43.327 41.058,43.292C41.32,42.053 41.656,39.149 42.658,38.436ZM43.645,38.997C43.916,40.154 43.824,41.667 43.874,42.858C43.592,42.976 43.322,43.093 43.047,43.223L42.908,43.104C43.004,41.982 42.95,39.864 43.645,38.997ZM42.927,37.885C42.927,36.948 43.374,36.423 44.277,36.469C44.67,36.973 44.744,37.371 44.821,38.177C44.68,38.25 44.54,38.319 44.41,38.388C43.624,38.306 43.429,38.284 42.927,37.885ZM44.277,38.845C45.081,39.278 44.939,41.022 44.451,41.851L44.41,41.851C44.136,41.105 44.191,39.723 44.147,38.987L44.277,38.845ZM45.245,37.945C46.081,37.945 45.396,39.163 45.222,39.571L45.092,39.571C45.05,39.559 45.006,39.546 44.962,39.546C44.886,38.716 44.93,38.6 45.245,37.945ZM47.169,39.463C46.974,41.361 45.365,45.153 43.244,45.469C42.809,45.411 42.385,45.353 41.961,45.306C41.961,43.42 43.918,43.795 44.974,42.241C45.375,41.045 45.68,39.864 46.203,38.798C46.658,38.798 46.778,39.045 47.169,39.463ZM48.129,46.196C47.182,46.896 46.062,47.868 44.93,48.057C44.735,47.494 44.506,46.862 44.374,46.393C45.277,45.808 48.129,43.223 48.129,46.196ZM49.857,45.773C49.964,46.241 50.151,46.709 50.052,47.331C49.432,47.751 47.431,49.505 46.963,49.6C46.658,49.039 46.453,48.546 46.234,48.057C46.736,47.74 49.617,45.599 49.857,45.773ZM48.399,50.862C47.182,49.322 48.465,49.084 49.771,48.23C49.867,48.23 49.964,48.442 50.063,48.617C50.258,50.253 49.617,50.245 48.399,50.862ZM49.953,50.793L49.922,52.013C49.878,51.998 49.844,51.998 49.813,51.998C49.172,51.963 48.78,51.861 48.259,51.683C48.173,51.408 49.695,50.738 49.953,50.793ZM40.035,56.704C40.722,56.237 41.438,56.422 42.31,56.237C43.093,55.932 43.832,55.347 44.647,55.875C43.397,56.797 42.58,57.825 41.037,57.825C40.395,57.583 40.287,57.219 40.035,56.704ZM38.111,55.85C38.123,55.383 38.142,54.912 38.165,54.446C39.175,53.825 40.308,53.943 41.526,53.885C41.602,53.732 41.688,53.579 41.776,53.439C41.862,53.439 43.244,54.842 43.506,55.1C41.656,55.732 40.525,56.118 38.73,56.19C38.524,56.072 38.317,55.955 38.111,55.85ZM22.329,56.237C22.449,55.896 22.581,55.558 22.711,55.23C25.017,55.429 27.18,56.224 29.563,56.483C29.572,55.722 29.639,54.947 29.748,54.259C31.292,54.304 37.01,53.755 37.468,54.739C37.567,55.159 37.676,55.627 37.686,56.141C36.752,57.091 36.12,58.074 34.868,58.294C34.551,58.087 33.039,56.996 33.499,56.599L34.868,56.773C35.022,57.265 34.826,57.735 35.068,58.18C35.391,57.886 35.404,57.243 35.469,56.832C35.925,56.763 36.304,56.728 36.882,56.773C36.859,56.61 36.838,56.446 36.828,56.282C34.402,55.989 31.859,55.251 29.725,56.483C26.235,59.499 27.18,56.155 24.093,55.722C23.505,55.917 22.862,56.237 22.329,56.237ZM17.295,54.842C17.436,54.211 17.577,53.801 17.829,53.297C19.209,53.776 20.765,54.222 22.113,55.113C22.134,55.463 22.168,56.237 21.895,56.527C20.601,56.001 18.436,54.842 17.295,54.842ZM14.74,53.825C15.317,53.825 16.187,54.609 16.752,54.995C16.523,55.3 15.783,55.672 15.479,55.78C14.706,55.264 14.794,54.68 14.74,53.825ZM14.248,51.226C14.511,51.226 16.913,52.572 17.285,52.97C17.186,53.228 16.632,54.293 16.598,54.281C15.599,53.509 13.532,52.666 14.248,51.226ZM13.705,48.758C13.749,48.71 13.793,48.675 13.835,48.641C14.576,49.331 15.12,49.718 16.088,50.22C15.979,50.619 15.87,51.016 15.763,51.426C15.739,51.426 15.729,51.426 15.718,51.436C14.248,50.654 13.761,50.397 13.705,48.758ZM13.337,46.181C14.173,46.933 16.773,48.16 17.186,49.05C16.861,49.459 16.84,49.518 16.426,49.577C15.513,49.145 12.403,47.339 13.337,46.181ZM13.52,33.204C13.509,34.187 13.509,34.187 13.488,34.176C13.064,33.918 12.608,33.554 12.608,33.076C13.054,32.842 12.89,32.864 13.52,33.204ZM14.847,32.548C14.057,32.186 15.132,31.429 15.37,31.555C15.273,31.87 15.109,32.269 14.847,32.548ZM16.512,32.41C16.371,33.614 15.849,34.492 15.282,35.628L15.531,35.663C15.63,36.083 16.827,40.471 16.533,41.105C15.882,40.824 15.523,40.437 14.958,40.389C14.958,41.851 17.35,42.063 17.839,43.118C17.503,43.574 17.056,44.415 16.544,44.592C12.923,42.649 13.27,42.297 13.816,38.531C14.173,38.236 14.347,38.25 14.859,38.167C15,38.447 15.143,38.727 15.294,39.021C15.305,39.021 15.317,39.021 15.338,39.032C15.664,38.682 15.13,38.014 15.021,37.746C13.423,37.569 12.608,36.75 11.401,35.837C11.39,35.767 11.378,35.709 11.378,35.65L10.399,35.475C10.399,35.381 10.399,35.298 10.412,35.218C10.997,35.381 11.596,35.544 12.195,35.709C12.195,35.767 12.205,35.826 12.216,35.896C12.423,35.943 13.282,36.295 13.576,36.224C12.291,34.561 9.106,34.246 10.214,31.846C10.628,31.659 10.573,32.338 10.781,32.677C10.964,32.478 11.159,32.281 11.357,32.092C11.466,32.151 11.575,32.222 11.682,32.29C11.693,32.467 11.705,32.642 11.726,32.817C11.661,32.854 11.596,32.888 11.531,32.937L11.531,33.17C12.314,33.17 12.304,32.467 12.619,33.697C12.944,34.306 13.566,34.655 14.217,35.077C14.511,34.972 14.066,33.052 14.011,32.854C13.684,32.69 13.358,32.537 13.043,32.384C13.043,32.232 13.251,32.092 13.337,31.987C14.022,32.198 14.456,32.992 15.076,33.626C15.695,33.451 15.968,32.877 16.371,32.36C16.413,32.374 16.458,32.384 16.512,32.41ZM16.621,37.896L16.544,37.896C16.478,37.861 16.413,37.828 16.359,37.793C16.38,37.5 16.491,37.337 16.632,37.125L16.806,37.125C16.806,37.381 16.817,37.604 16.621,37.896ZM17.022,35.719C17.022,35.896 16.642,36.867 16.437,36.645C15.903,36.072 16.109,34.526 16.611,33.988C16.882,34.34 17.816,35.346 17.022,35.719ZM16.437,25.2C16.676,24.942 17.262,24.157 17.545,24.063C17.6,24.113 17.655,24.157 17.709,24.215C17.577,24.346 16.676,25.317 16.567,25.317C16.523,25.27 16.478,25.234 16.437,25.2ZM17.035,23.643C16.752,24.228 16.512,24.638 15.914,24.918C15.914,24.403 16.447,23.503 17.035,23.643ZM18.306,22.741C17.751,22.602 17.426,20.529 17.339,20.084C17.382,20.028 17.426,19.969 17.47,19.921C17.99,20.344 18.448,22.098 18.306,22.741ZM18.003,27.623C17.751,27.565 17.512,27.506 17.272,27.457C17.012,26.908 16.697,26.206 16.697,25.713C16.718,25.693 17.839,24.65 17.839,25.105C17.361,25.574 17.142,26.324 17.642,27.048C17.741,26.978 17.839,26.908 17.948,26.849C17.915,26.112 18.056,25.655 18.209,25.036C18.209,24.192 17.47,23.643 17.207,22.987C17.262,22.943 17.317,22.906 17.371,22.868C17.837,23.035 18.715,24.321 18.818,24.321C18.862,24.263 18.904,24.205 18.959,24.157C18.6,22.883 18.383,21.793 18.24,20.624L18.371,20.448L18.425,20.448C19.404,22.343 19.396,25.807 18.003,27.623ZM21.426,36.212L21.296,37.09C20.819,36.845 20.351,36.6 19.883,36.364C19.872,36.376 20.057,36.828 20.067,36.891C20.515,37.652 22.516,38.506 23.451,38.143C23.679,38.306 23.864,38.625 24.104,38.962C24.169,38.903 24.244,38.858 24.32,38.809C24.765,39.418 24.364,43.515 25.191,45.292C25.376,45.292 25.613,45.188 25.832,45.118C25.364,42.951 25.103,43.118 26.649,42.157C27.105,42.567 26.529,44.38 26.386,45.118C26.452,45.141 26.485,45.141 26.517,45.281C26.571,45.281 26.638,45.281 26.701,45.292C26.777,45.153 26.865,45.012 26.953,44.881C27.029,44.897 27.029,44.897 27.443,45.128L27.474,45.692C27.976,45.362 28.117,42.018 28.052,41.536C27.844,41.444 27.638,41.351 27.443,41.267C27.453,41.128 27.474,40.998 27.497,40.868C27.703,40.868 27.833,41.093 28.018,41.373C28.083,41.351 28.159,41.326 28.236,41.314C28.682,40.028 28.442,38.271 28.661,36.997C29.062,36.562 29.226,36.281 29.442,35.778C29.454,35.778 29.465,35.791 29.486,35.803C29.192,39.125 29.095,42.567 28.942,45.959L29.475,45.959L29.639,44.872C30.378,44.872 31.141,44.881 31.956,45.012L31.989,46.334C31.933,46.324 31.88,46.324 31.825,46.324C28.247,46.146 23.994,45.925 20.981,43.841C20.981,42.029 22.144,40.378 21.777,38.355C21.655,38.344 21.537,38.344 21.426,38.344C21.254,39.348 20.907,42.849 20.515,43.56C20.364,43.526 20.221,43.491 20.08,43.457C19.948,41.946 20.156,40.413 19.904,39.055C18.948,37.065 17.98,35.03 17.155,33.111C16.991,31.859 17.001,30.652 17.035,29.481C17.35,29.318 17.371,29.19 17.795,29.284C17.925,29.54 18.077,29.786 18.219,30.186C18.677,33.391 18.839,34.082 21.426,36.212ZM22.287,27.574C19.818,29.331 19.818,29.259 20.515,32.174C21.384,33.157 21.579,33.124 21.264,34.596C20.926,34.702 20.622,34.854 20.351,34.914C20.166,34.773 19.992,34.633 19.818,34.492C19.732,33.59 19.362,32.959 19.036,32.232C18.992,32.222 18.959,32.21 18.925,32.21C18.885,31.367 18.818,30.64 18.709,29.927C19.513,29.155 21.722,27.811 21.525,26.652C21.852,26.3 22.459,27.001 22.287,27.574ZM24.874,33.193C24.505,33.567 23.929,34.094 23.364,33.941C22.906,33.626 22.906,33.626 22.862,33.626C23.188,34.2 23.81,35.051 22.678,35.239C21.798,34.983 22.144,33.719 21.829,33.145C18.904,28.779 22.102,26.721 25.028,30.068C24.799,30.572 23.744,30.724 23.614,30.946C23.864,31.11 24.114,31.283 24.364,31.46C24.364,31.562 23.715,32.403 23.614,32.527C24.257,32.834 23.904,31.97 24.647,32.21C24.215,33.06 24.874,32.697 24.874,33.193ZM25.191,34.901C25.082,34.749 24.973,34.596 24.864,34.458C25.162,33.705 25.475,35 25.191,34.901ZM25.32,33.462C25.473,33.496 25.571,33.496 25.723,33.778C25.681,33.836 25.637,33.907 25.595,33.976L25.452,33.976C25.376,33.895 25.301,33.825 25.236,33.756C25.256,33.649 25.288,33.554 25.32,33.462ZM25.55,32.642C25.637,32.7 26.126,32.97 25.92,33.299C25.613,33.064 25.408,32.959 25.55,32.642ZM25.626,31.917C25.853,31.999 25.983,32.092 26.191,32.434C26.157,32.478 26.105,32.537 26.061,32.537C25.842,32.326 25.55,32.117 25.626,31.917ZM26.002,31.033C26.182,31.102 26.262,31.102 26.353,31.491C26.21,31.702 26.21,31.702 26.182,31.691C26.067,31.592 25.952,31.508 25.834,31.421C25.834,31.102 25.847,31.201 26.002,31.033ZM26.095,30.35L26.669,30.763C26.669,30.778 26.657,30.984 26.617,30.942C26.388,30.847 26.171,30.75 25.954,30.652C25.942,30.598 25.942,30.543 25.942,30.488C25.993,30.435 26.043,30.391 26.095,30.35ZM26.596,30.28L26.105,29.667C26.541,28.878 26.706,30.398 26.596,30.28ZM26.34,28.765C26.456,28.745 26.584,28.728 26.716,28.728C26.778,28.796 27.364,29.304 26.91,29.548C26.406,29.235 26.487,29.111 26.34,28.765ZM26.63,28.343C26.675,28.233 26.719,28.125 26.777,28.032C26.905,28.032 27.407,28.405 27.135,28.697C26.963,28.575 26.788,28.45 26.63,28.343ZM27.294,28.116C27.102,27.956 26.911,27.815 26.717,27.669C27.471,26.684 27.725,27.975 27.294,28.116ZM27.17,26.522C27.258,26.534 27.342,26.546 27.443,26.568C27.497,26.686 27.443,27.201 27.31,27.06C27.18,26.873 27.083,26.745 27.06,26.662C27.096,26.617 27.128,26.568 27.17,26.522ZM27.443,25.612C27.589,25.795 27.92,26.095 27.92,26.481C27.869,26.481 27.828,26.496 27.787,26.509C27.51,26.438 27.336,26.209 27.192,26.065C27.256,25.909 27.323,25.752 27.389,25.612L27.443,25.612ZM27.616,25.025C27.752,25.09 27.884,25.172 28.02,25.253C28.02,25.315 28.02,25.381 28.035,25.443C28.006,25.428 27.974,25.428 27.945,25.428C27.57,25.218 27.57,25.218 27.512,25.139C27.541,25.09 27.57,25.056 27.616,25.025ZM27.594,21.643C27.692,21.748 27.789,21.852 27.888,21.971C27.865,22.109 27.854,22.251 27.844,22.403C27.789,22.403 27.737,22.403 27.692,22.415C27.375,22.415 27.474,21.899 27.464,21.758C27.506,21.712 27.55,21.677 27.594,21.643ZM28.182,21.63C27.909,21.384 27.875,21.326 27.812,21.081C27.833,21.046 27.865,21.01 27.898,20.976C28.008,20.987 28.117,21.01 28.236,21.032C28.236,21.15 28.247,21.664 28.182,21.63ZM28.335,22.403C28.486,22.074 28.507,22.133 28.822,22.425C28.822,22.485 28.822,22.485 28.726,22.648L28.673,22.648C28.551,22.567 28.442,22.485 28.335,22.403ZM28.637,20.844C28.539,20.694 28.453,20.541 28.367,20.389C28.627,19.674 28.877,20.717 28.637,20.844ZM29.03,21.899C28.921,21.971 28.921,21.971 28.911,21.945C28.65,21.619 28.702,21.664 28.822,21.362C28.887,21.362 29.062,21.689 29.03,21.899ZM28.965,19.674C28.999,19.769 29.062,19.897 29.095,20.098C29.062,20.109 29.039,20.12 29.018,20.143C28.822,19.935 28.911,19.805 28.965,19.674ZM27.464,18.283C27.875,17.733 28.921,17.347 29.421,18.153C27.68,18.294 27.68,18.294 27.464,18.283ZM23.669,18.541C24.005,18.33 26.017,17.909 26.267,18.32C25.397,18.505 24.582,18.669 23.778,18.74C23.734,18.669 23.7,18.599 23.669,18.541ZM23.385,17.604C23.656,17.219 25.538,16.973 26.115,16.915L26.43,17.254C25.452,17.71 24.44,17.687 23.495,17.744C23.451,17.697 23.419,17.65 23.385,17.604ZM26.517,16.163C26.475,16.247 26.43,16.33 26.386,16.425L25.613,16.458C25.595,16.493 25.582,16.527 25.571,16.562C25.061,16.387 24.69,16.833 24.213,16.833C23.505,16.795 23.505,16.795 23.396,16.761C23.623,16.178 25.887,15.743 26.517,16.163ZM26.92,16.552C27.159,16.714 27.399,16.878 27.648,17.055L27.648,17.313C27.399,17.5 27.159,17.687 26.92,17.886L26.756,17.78C26.745,17.394 26.626,16.761 26.92,16.552ZM29.366,16.178C29.127,16.351 28.312,16.82 28.257,16.795C27.865,16.575 27.474,16.351 27.096,16.142C27.289,15.931 28.931,16.07 29.366,16.07L29.366,16.178ZM30.118,16.458C30.118,16.632 30.084,17.569 29.921,17.394C29.671,17.288 29.421,17.195 29.171,17.101C29.161,17.018 29.15,16.937 29.15,16.868C29.41,16.68 29.671,16.493 29.931,16.315C29.985,16.365 30.051,16.41 30.118,16.458ZM31.433,14.878C31.206,14.971 30.977,15.066 30.759,15.159C29.572,14.947 29.442,13.624 30.443,13.181C30.443,12.784 30.443,12.384 30.454,11.986C29.91,11.986 29.366,11.986 28.822,11.999C28.213,13.52 25.528,11.061 28.127,10.514C28.617,10.722 28.65,10.617 28.877,11.213C29.4,11.213 29.921,11.213 30.454,11.225C30.443,10.76 30.433,10.29 30.433,9.822C28.127,8.898 32.707,6.451 31.531,9.704L31.237,9.845C31.224,10.302 31.224,10.76 31.224,11.225C31.662,11.213 32.109,11.213 32.554,11.213C32.815,10.37 33.461,10.481 34.131,10.769C34.74,12.42 33.173,13.062 32.608,11.999C32.141,11.986 31.683,11.986 31.224,11.986C31.224,12.395 31.224,12.819 31.237,13.239C31.912,13.52 31.628,14.316 31.433,14.878ZM31.141,16.493C31.183,16.562 31.224,16.645 31.269,16.726C31.183,16.82 31.063,16.949 30.977,16.949C30.095,16.878 30.433,16.445 31.141,16.493ZM31.216,17.803L30.563,17.979C30.519,17.909 30.488,17.849 30.454,17.792C30.54,17.744 31.357,17.347 31.216,17.803ZM30.954,15.978C30.813,15.919 30.683,15.872 30.551,15.825C30.429,15.026 31.55,15.659 30.954,15.978ZM31.933,18.517C31.933,18.751 31.922,18.81 31.758,19.066C31.032,19.066 30.313,19.066 29.595,19.08C29.52,18.776 29.551,18.751 29.639,18.552C30.17,18.505 31.433,18.247 31.933,18.517ZM31.933,19.758C31.836,19.734 31.748,19.723 31.662,19.711C31.695,19.629 31.727,19.559 31.771,19.489C31.88,19.536 32.02,19.805 31.933,19.758ZM32.304,20.512C31.937,20.374 31.707,20.204 31.764,19.992C31.919,19.947 32.033,20.009 32.284,20.13C32.142,20.326 32.344,20.512 32.304,20.512ZM32.697,20.925C32.663,20.925 32.646,20.944 32.625,20.965C32.428,20.884 32.252,20.811 32.072,20.753C32.108,20.696 32.141,20.637 32.18,20.599C32.338,20.656 32.518,20.715 32.697,20.792L32.697,20.925ZM33.095,21.355C33.081,21.401 33.068,21.449 33.068,21.51C32.898,21.525 32.744,21.54 32.586,21.571L32.076,21.205C32.076,20.872 33.019,21.308 33.095,21.355ZM33.531,22.001L33.48,22.107C33.18,22.107 32.88,22.107 32.597,22.123L32.478,22.001C32.864,21.803 32.929,21.767 33.531,22.001ZM33.764,22.488C33.641,22.602 33.474,22.733 33.353,22.733C33.245,22.666 33.142,22.602 33.051,22.552C33.113,22.438 33.172,22.325 33.245,22.225C33.353,22.225 33.535,22.338 33.764,22.488ZM34.207,23.08C34.043,23.198 33.944,23.304 33.772,23.304C33.598,23.304 33.543,23.08 33.532,23.046C33.782,22.918 33.837,22.8 34.186,22.894C34.186,22.952 34.196,23.011 34.207,23.08ZM34.75,23.667C34.163,23.995 34.163,23.995 34.108,23.995C33.858,23.783 33.902,23.783 34.043,23.595C34.272,23.595 34.501,23.609 34.73,23.62C34.73,23.631 34.74,23.643 34.75,23.667ZM35.071,24.307C34.81,24.408 34.388,24.616 34.255,24.616C34.201,24.511 34.16,24.408 34.123,24.325C34.488,24.202 34.657,24.079 35.071,24.307ZM35.462,24.869C35.448,24.948 35.438,25.042 35.438,25.135C35.176,25.148 34.916,25.177 34.671,25.201C34.608,25.121 34.547,25.055 34.484,24.988C34.744,24.711 35.028,24.735 35.462,24.869ZM35.846,25.773L34.972,25.773L35.015,25.535C35.282,25.518 35.562,25.502 35.846,25.502L35.846,25.773ZM36.15,26.046C36.011,26.146 36.011,26.146 35.54,26.315C35.431,26.247 35.322,26.18 35.211,26.129C35.461,26.046 35.727,26.028 36.15,26.046ZM36.219,27.07C36.044,26.978 35.87,26.885 35.708,26.789C35.708,25.391 36.962,27.459 36.219,27.07ZM36.899,27.22C36.899,27.288 36.803,27.786 36.696,27.737C36.435,27.637 36.294,27.503 36.202,27.42C36.25,27.338 36.667,27.136 36.899,27.22ZM37.442,28.338C37.289,28.323 37.136,28.323 36.994,28.323C36.887,28.234 36.789,28.159 36.692,28.083C37.083,27.847 36.984,27.772 37.412,28.114C37.412,28.189 37.426,28.265 37.442,28.338ZM37.795,28.796C37.609,28.835 37.426,28.888 37.259,28.94C37.075,28.867 36.908,28.812 36.744,28.761C36.776,28.67 36.825,28.579 36.872,28.51C37.259,28.474 37.326,28.458 37.795,28.796ZM37.326,29.639L37.025,29.323C37.939,28.793 38.3,29.216 37.326,29.639ZM38.295,29.5C38.295,29.931 37.695,29.825 37.911,29.795C37.843,29.778 37.585,29.865 37.526,29.845L37.946,29.452C38.09,29.452 38.134,29.485 38.295,29.5ZM38.737,30.276C38.525,30.384 38.525,30.384 38.412,30.384C37.87,30.207 37.87,30.207 37.839,30.155C37.984,30.002 38.878,29.766 38.737,30.276ZM39.101,30.688C38.389,30.896 38.389,30.896 38.236,30.896C38.19,30.847 38.146,30.799 38.099,30.767C38.357,30.688 38.723,30.44 39.086,30.505C39.086,30.557 39.086,30.619 39.101,30.688ZM39.586,31.554C39.098,31.483 38.852,31.378 38.625,31.201C39.656,30.939 39.602,31.57 39.586,31.554ZM39.194,31.978C39.155,31.938 39.118,31.898 39.093,31.858C39.47,31.723 39.521,31.654 40.01,31.87C39.809,32.087 39.395,31.978 39.194,31.978ZM39.676,33.579C40.308,33.579 40.884,33.17 41.581,33.544C41.474,34.206 41.816,34.837 41.623,35.591C41.339,35.591 41.146,35.37 41.014,35.263L41.014,35.181C41.232,34.995 41.243,34.983 41.581,34.961C41.537,34.867 41.495,34.773 41.451,34.69C41.024,34.608 40.547,34.526 40.254,34.702C40.753,35.194 41.383,36.353 41.883,37.114C42.047,37.101 42.211,37.101 42.374,37.101L42.047,36.785L42.505,36.295C42.549,36.305 42.624,36.339 42.744,36.469C42.417,37.266 42.7,37.43 41.94,37.933C41.896,38.355 41.623,41.056 41.232,40.635C40.46,39.653 39.905,38.482 38.948,39.677L38.829,39.546C39.133,39.302 39.437,39.055 39.754,38.822C39.634,38.716 39.514,38.625 39.405,38.531L39.699,38.319C39.309,36.635 39.198,35.288 38.176,34.048C37.858,33.812 36.523,32.864 36.447,32.7C36.664,32.7 37.08,32.888 37.405,32.888C36.752,30.385 34.98,27.961 34.576,25.762C35.904,26.769 36.817,30.242 38.36,31.239C38.35,31.32 38.339,31.402 38.339,31.495C38.959,31.87 39.123,32.794 39.676,33.579ZM41.766,36.118C41.7,36.058 41.633,36.001 41.581,35.943C41.633,35.756 41.656,35.778 41.873,35.849C41.873,35.92 41.883,35.99 41.896,36.058C41.797,36.108 41.841,36.118 41.766,36.118ZM40.46,33.17C40.287,33.204 40.113,33.253 39.949,33.299C39.905,33.239 39.861,33.18 39.819,33.134C39.939,33.052 40.056,32.97 40.189,32.899C40.275,32.981 40.363,33.076 40.46,33.17ZM42.45,29.633C45.344,29.998 45.31,30.512 45.214,33.579C45.05,35.006 44.202,35.756 42.973,35.966L42.31,35.861C42.299,35.65 42.299,35.45 42.299,35.253C42.471,35.169 42.645,35.089 42.82,35.017C42.82,34.492 42.362,34.627 42.362,34.458C42.82,33.966 43.494,34.878 43.343,33.895L42.287,33.895C42.287,33.328 42.58,33.47 42.515,33.052C41.971,33.018 41.438,32.992 40.905,32.97C40.905,31.485 41.667,30.783 42.45,29.633ZM47.811,30.735C47.345,31.412 46.833,34.655 45.55,34.655L45.518,34.655C45.518,30.957 46.224,29.752 42.593,29.259C42.494,29.108 42.429,28.956 42.429,28.888C43.887,27.949 48.378,28.524 49.987,29.075C49.227,29.612 48.507,30.15 47.811,30.735ZM50.455,33.145C50.434,33.145 50.411,33.145 50.39,33.157C50.151,32.842 50.008,32.572 49.901,32.326C49.911,32.315 49.922,32.315 49.932,32.315C50.021,32.419 50.562,32.842 50.455,33.145ZM51.749,35.006L51.749,34.714C51.619,34.643 51.499,34.573 51.379,34.514L51.379,34.374C51.533,34.328 51.661,34.398 51.879,34.526C51.783,35.381 51.466,35.45 50.823,35.732C50.78,35.709 50.739,35.687 50.692,35.673C51.396,34.023 50.907,35.46 51.749,35.006ZM54.479,33.087C54.653,35.37 51.736,35.896 50.823,37.676C51.239,37.676 53.425,36.6 53.545,36.728C52.488,37.583 51.096,38.927 49.792,39.103C49.628,38.927 49.464,38.763 49.302,38.6C48.954,38.845 48.129,41.583 48.129,42.097L48.485,42.063C48.715,41.256 48.954,40.459 49.193,39.664C49.464,39.701 49.747,39.734 50.031,39.782C50.237,41.278 49.987,43.281 49.891,44.932C49.682,45.106 48.694,45.938 48.507,45.843C48.278,45.435 48.051,45.025 47.833,44.615C48.324,44.169 48.857,43.656 49.324,43.153C48.681,42.46 46.343,45.306 45.69,44.602C46.539,42.636 48.063,38.062 49.422,36.236C49.214,35.089 47.649,33.825 47.975,33.193C48.54,33.496 49.649,34.561 50.247,34.526C50.554,33.884 50.76,33.345 51.369,33.018C51.476,33.076 51.585,33.134 51.704,33.204L51.772,33.79C50.771,34.306 50.466,34.961 50.182,36.176C51.434,36.985 52.303,34.082 52.467,34.082C52.641,34.234 52.673,34.292 52.999,34.211C53.141,33.649 52.772,33.531 53.141,33.134L53.49,33.204C53.49,33.367 53.49,33.544 53.498,33.719C53.836,33.485 53.979,33.357 54.206,32.97C54.294,33.006 54.38,33.041 54.479,33.087ZM49.227,34.995C49.324,34.995 49.422,34.995 49.519,35.006C49.464,34.469 48.519,33.706 48.194,33.706C48.519,34.104 48.889,34.492 49.227,34.995ZM49.443,44.557C49.378,44.451 49.324,44.346 49.269,44.24C48.79,44.309 48.759,44.309 48.574,44.789C48.626,44.872 48.694,44.964 48.759,45.06C48.954,45.06 49.313,44.778 49.443,44.557ZM42.31,30.453L42.31,30.77C43.179,30.759 44.048,30.746 44.92,30.746C43.895,30.021 43.343,30.232 42.31,30.453ZM42.255,31.332C42.244,31.437 42.232,31.543 42.232,31.647C42.702,31.614 42.82,31.304 43.103,31.823C42.996,31.917 42.885,32.01 42.775,32.117C42.82,32.198 42.864,32.29 42.908,32.384C43.278,32.384 43.645,32.398 44.027,32.41L44.027,32.151L43.765,32.117C43.58,31.81 43.702,31.718 43.775,31.495C43.907,31.485 44.048,31.471 44.191,31.471L44.191,31.215C43.2,30.981 43.114,31.039 42.255,31.332ZM43.015,32.548C42.94,32.654 42.885,32.714 42.885,32.911C43.299,32.899 43.712,32.888 44.136,32.888C43.754,32.772 43.385,32.654 43.015,32.548ZM41.123,33.603C41.037,33.743 40.951,33.884 40.873,34.034L40.144,33.999L40.079,34.142L40.308,34.35C40.699,34.328 41.091,34.314 41.495,34.306L41.199,33.603L41.123,33.603ZM31.412,13.989C30.695,12.561 29.442,14.128 30.779,14.608C31.195,14.468 31.224,14.434 31.412,13.989ZM31.412,9.12C31.021,8.394 30.509,8.371 30.162,9.12C30.334,9.496 30.282,9.482 30.779,9.67C31.13,9.575 31.248,9.482 31.412,9.12ZM32.804,11.589C32.965,11.952 32.934,12.034 33.424,12.208C34.837,11.836 33.379,10.078 32.804,11.589ZM28.539,11.659C28.539,10.196 26.342,11.565 27.963,12.208C28.291,12.174 28.409,11.916 28.539,11.659ZM23.419,30.325C23.234,30.232 23.146,30.291 23.058,30.291C22.982,30.08 22.906,29.88 22.841,29.683C22.274,29.481 21.733,30.173 21.733,30.746C21.829,30.652 21.928,30.559 22.027,30.478C22.113,30.548 22.201,30.63 22.287,30.712C22.287,30.818 22.123,30.981 22.037,31.099C22.134,31.144 22.243,31.19 22.352,31.249C22.808,30.992 23.058,30.759 23.419,30.325ZM20.916,30.256C21.363,30.256 22.201,29.424 22.732,29.143C22.667,29.027 22.602,28.922 22.548,28.814C21.777,28.722 21.189,29.623 20.916,30.256ZM20.981,33.087C19.872,31.427 19.752,31.274 19.711,29.459C18.318,30.548 20.242,33.027 20.666,34.514C20.666,34.526 20.666,34.538 20.676,34.552C21.004,34.409 20.981,33.322 20.981,33.087ZM22.211,38.787C21.699,39.524 21.699,41.934 21.699,42.849C21.71,42.849 21.722,42.849 21.743,42.858C21.743,43.584 21.33,43.83 22.168,44.24C22.191,44.24 22.222,44.24 22.256,44.251C22.428,42.521 22.667,40.66 22.516,38.997C22.407,38.927 22.308,38.858 22.211,38.787ZM22.896,38.763C22.919,40.635 22.841,42.649 23.058,44.602C23.188,44.592 23.331,44.581 23.471,44.581C23.352,42.636 23.234,40.695 23.123,38.763L22.896,38.763ZM23.331,38.67C23.331,40.684 23.711,42.765 23.994,44.836C24.093,44.881 24.2,44.942 24.309,45C24.332,45 24.351,45 24.375,45.012C24.213,42.849 24.059,40.649 23.549,38.625C23.471,38.635 23.396,38.646 23.331,38.67ZM15.164,34.961C15.609,34.469 16.044,34.059 15.914,33.417C15.489,33.638 15.294,34.443 15.154,34.923C15.154,34.937 15.154,34.949 15.164,34.961ZM13.434,33.322C12.984,33.202 13.375,32.937 12.869,33.345C12.944,33.437 13.032,33.531 13.119,33.626C13.184,33.626 13.368,33.391 13.434,33.322ZM18.165,53.825C18.165,54.152 18.24,54.293 18.448,54.656C18.547,54.585 18.654,54.528 18.763,54.468C18.73,53.72 18.644,53.638 18.165,53.825ZM30.467,54.609C30.345,54.748 30.225,54.903 30.105,55.055C30.235,55.169 30.368,55.3 30.509,55.429C30.574,55.429 30.574,55.429 31.052,55.207C31.097,55.042 30.987,54.797 30.987,54.784L30.467,54.609ZM38.85,54.936C38.85,55.193 39.079,55.334 39.384,55.416C39.525,55.394 39.666,55.383 39.808,55.371C39.84,55.207 39.83,55.042 39.83,54.995C39.449,54.808 39.133,54.748 38.85,54.936ZM49.084,50.102C49.183,49.718 49.097,49.727 48.922,49.505C48.498,49.529 48.431,49.857 48.29,49.857C48.412,49.987 48.53,50.126 48.649,50.267C48.79,50.209 48.933,50.151 49.084,50.102ZM47.811,48.699C48.051,48.186 47.996,48.29 47.757,47.94L47.257,47.94C47.169,48.077 47.093,48.23 47.018,48.383C47.114,48.501 47.213,48.629 47.322,48.758C47.486,48.734 47.649,48.71 47.811,48.699ZM45.756,47.238C45.81,47.071 45.867,46.92 45.919,46.769C45.506,46.136 45.56,46.487 44.951,46.862C45.05,46.976 45.147,47.108 45.245,47.238L45.756,47.238ZM43.45,36.938C43.036,37.604 42.996,37.527 43.569,38.16C43.765,38.136 43.973,38.177 44.178,38.167C44.418,37.78 44.527,37.569 44.493,37.114C44.006,36.867 43.918,36.891 43.45,36.938ZM44.441,37.207C44.397,37.569 44.355,37.721 44.136,38.038L43.517,37.994C42.96,37.001 43.592,36.833 44.441,37.207ZM44.277,37.288L43.624,37.114L43.397,37.5C43.592,37.64 43.799,37.78 44.006,37.933L44.071,37.933C44.256,37.64 44.277,37.569 44.277,37.288ZM43.668,37.219C43.853,37.253 44.04,37.303 44.223,37.347C44.223,37.5 44.17,37.628 44.048,37.816L43.996,37.816L43.506,37.465L43.668,37.219ZM32.718,48.137C32.651,48.29 32.586,48.454 32.531,48.617C32.695,48.734 32.869,48.863 33.043,48.992C33.184,48.992 33.468,48.828 33.663,48.758C33.663,48.57 33.348,48.195 33.337,48.17L32.718,48.137ZM34.816,52.701C34.652,52.749 34.488,52.808 34.337,52.866C34.303,53.004 34.282,53.146 34.259,53.297C34.371,53.404 34.477,53.521 34.598,53.638C35.339,53.544 35.055,53.064 34.816,52.701ZM31.01,50.689C30.727,50.676 30.454,50.666 30.183,50.666C30.149,50.819 30.149,50.921 30.149,51.158L30.54,51.262C30.954,51.262 31.097,51.05 31.01,50.689ZM24.897,47.446C24.897,47.845 24.931,47.891 25.267,48.221C25.408,48.221 25.691,47.926 25.832,47.811C25.832,46.886 25.212,47.339 24.897,47.446ZM22.896,49.283L22.274,49.283C22.298,49.787 22.298,49.787 22.329,49.905C22.438,49.95 22.438,49.95 22.732,49.987C23.234,49.987 22.982,49.505 22.896,49.283ZM25.441,52.106L25.376,52.351C25.431,52.433 25.496,52.516 25.561,52.606C25.746,52.606 25.928,52.62 26.115,52.63C26.094,52.269 26.082,52.244 25.952,52.034L25.441,52.106ZM22.352,53.907C22.493,53.893 22.493,53.893 23.058,53.72L22.516,53.099C22.342,53.099 22.274,53.206 22.144,53.262L22.144,53.755C22.211,53.801 22.274,53.851 22.352,53.907ZM17.436,51.158C17.142,51.028 17.132,51.099 16.913,51.168C16.892,51.496 17.012,51.637 17.22,51.998C17.72,51.825 17.545,51.649 17.436,51.158ZM17.936,49.577C17.936,49.846 18.035,49.963 18.219,50.267C18.318,50.209 18.425,50.151 18.535,50.102C18.535,49.518 18.379,49.386 17.936,49.577ZM16.088,46.334C16.122,46.734 16.166,46.792 16.478,47.202C16.577,47.143 16.687,47.084 16.793,47.036C16.793,46.276 16.687,46.103 16.088,46.334ZM18.579,45.164C18.98,44.65 18.969,44.733 18.709,44.309C18.566,44.298 18.436,44.298 18.306,44.298C18.089,44.802 18.056,44.673 18.36,45.164L18.579,45.164ZM22.903,36.329C23.092,36.415 23.176,36.666 23.026,37.114C22.94,37.149 22.862,37.184 22.787,37.228C22.274,37.173 22.178,36.878 22.243,36.469C22.399,36.364 22.557,36.305 22.694,36.295C22.558,36.289 22.4,36.306 22.211,36.364C22.06,36.867 22.201,37.228 22.743,37.312C23.339,37.154 23.408,36.494 22.903,36.329ZM22.694,36.295C22.771,36.299 22.843,36.309 22.903,36.329C22.843,36.301 22.772,36.29 22.694,36.295ZM46.658,55.123C47.801,54.912 49.084,54.152 50.031,53.333C48.093,52.701 46.419,51.883 44.657,51.064C43.538,50.162 41.32,48.582 39.97,48.582C40.753,51.109 44.41,54.481 46.658,55.123ZM41.123,49.657C40.874,49.353 40.493,49.05 40.417,48.886C41.472,48.886 43.456,50.482 44.2,50.953C44.727,51.287 44.845,51.366 45.496,51.682C46.911,52.067 48.141,53.247 49.734,53.355C49.046,53.309 47.401,54.57 46.738,54.57C45.986,54.487 44.17,53.684 44.038,53.194C42.986,51.777 41.459,51.508 41.123,49.657ZM18.11,56.68C16.468,56.892 14.859,57.334 13.446,58.12C13.446,58.213 13.566,58.33 13.663,58.472C14.576,58.283 16.913,57.361 17.762,57.535C18.547,58.423 19.131,58.951 20.156,59.687C22.233,60.426 23.049,58.236 24.505,58.236C27.648,61.619 27.43,60.111 31.195,58.53C31.237,58.517 33.923,60.505 35.24,60.625C36.708,60.52 37.6,59.197 39.045,59.197C41.971,60.438 42.406,60.261 45.092,58.53C46.669,58.074 48.498,59.385 50.531,58.694C50.508,58.634 50.487,58.587 50.466,58.542C48.551,58.319 46.593,57.594 44.766,57.653C42.895,59.255 41.688,60.191 39.535,58.681C39.546,58.659 39.556,58.646 39.569,58.634C39.556,58.625 39.546,58.611 39.546,58.6C39.504,58.6 39.46,58.6 39.426,58.611C38.61,57.735 38.48,58.085 37.613,58.551C35.435,60.625 33.881,60.274 32.065,58.085C29.9,56.47 28.673,61.361 25.626,58.576C24.309,57.102 24.528,57.183 22.787,58.343C20.34,59.701 19.732,58.53 18.11,56.68ZM15.282,59.911C18.263,59.444 17.109,58.812 19.773,60.8C21.558,61.691 22.274,60.684 24.179,60.332C25.561,61.513 27.224,61.853 29.072,61.747C31.672,60.166 30.792,60.344 33.119,62.122C33.348,62.24 33.694,62.229 33.988,62.437C35.74,62.437 36.5,62.31 38.012,61.244C39.611,60.472 41.308,62.229 43.614,61.281C45.485,60.413 46.321,60.635 48.378,60.589C48.366,60.426 48.355,60.261 48.355,60.111C45.17,59.548 45.518,58.997 43.07,60.719C40.884,61.677 39.514,59.618 37.697,60.448C34.108,63.082 34.108,60.53 30.847,59.875C28.617,60.953 28.106,61.41 25.733,60.389C25.277,60.074 24.494,59.385 24.125,59.312C21.481,60.377 21.027,61.233 18.719,59.406C17.72,58.694 15.5,58.271 15.282,59.911ZM21.439,62.041C21.504,62.169 21.569,62.3 21.645,62.437C22.233,62.437 22.581,62.403 23.221,62.181C23.245,62.204 23.266,62.229 23.287,62.264C24.942,62.264 25.191,62.672 26.789,63.14C28.083,63.41 29.563,62.601 30.899,62.473C32.499,63.082 32.924,63.419 34.891,63.643C36.13,63.608 36.893,63.48 38.066,62.825C39.384,62.216 39.786,63.188 41.495,62.895C41.547,62.777 41.602,62.672 41.667,62.566C40.525,62.169 38.209,61.034 37.468,62.403C36.099,63.082 34.477,63.119 33.075,62.825C32.237,62.437 31.706,61.747 30.889,61.747C29.629,62.076 27.419,63.128 26.3,62.157C23.744,60.905 24.114,61.115 21.439,62.041ZM28.747,63.844C28.713,63.948 28.661,64.17 28.562,64.275C28.986,64.967 30.259,64.16 30.704,63.914C31.399,63.914 32.128,64.311 32.913,64.604C32.989,64.57 33.075,64.368 33.129,64.264C31.412,62.907 30.714,63.444 28.747,63.844Z" style="fill:rgb(0,64,78);fill-rule:nonzero;"/>
        <path d="M21.05,66.93C21.448,67.057 21.855,67.239 22.147,67.437L21.746,68.69L21.251,68.531C21.215,68.304 21.2,68.04 21.212,67.846C21.092,67.729 20.887,67.595 20.616,67.508C20.278,67.4 19.95,67.441 19.833,67.81C19.551,68.687 21.753,69.029 21.297,70.456C21.062,71.192 20.224,71.554 19.067,71.183C18.729,71.075 18.33,70.896 18.05,70.737L18.437,69.53L18.924,69.687C18.964,69.924 18.982,70.207 18.964,70.391C19.047,70.469 19.252,70.579 19.433,70.636C19.808,70.756 20.086,70.665 20.189,70.343C20.445,69.543 18.238,69.113 18.686,67.718C18.93,66.951 19.833,66.54 21.05,66.93Z" style="fill:rgb(0,64,78);fill-rule:nonzero;"/>
        <path d="M17.446,65.643L17.245,66.001C17.027,66.021 16.789,66.01 16.57,65.963L15.062,68.663C15.205,68.81 15.349,69.022 15.451,69.21L15.255,69.563L13.264,68.45L13.461,68.098C13.675,68.085 13.931,68.098 14.132,68.144L15.641,65.444C15.487,65.283 15.353,65.084 15.255,64.889L15.455,64.53L17.446,65.643Z" style="fill:rgb(0,64,78);fill-rule:nonzero;"/>
        <path d="M9.8,61.937L10.727,60.98C11.296,61.154 11.886,61.486 12.396,61.979C13.416,62.967 13.439,64.226 12.517,65.177C11.487,66.241 10.092,66.228 8.907,65.081C8.562,64.746 8.216,64.332 7.974,63.947L8.895,62.997L9.275,63.364C9.222,63.588 9.13,63.807 9.027,63.995C9.14,64.217 9.315,64.467 9.57,64.714C10.21,65.335 10.98,65.13 11.604,64.487C12.205,63.867 12.334,63.031 11.654,62.372C11.507,62.228 11.348,62.097 11.189,62.012L10.554,62.667C10.633,62.813 10.689,63.016 10.733,63.197L10.459,63.48L9.076,62.14L9.351,61.856C9.493,61.869 9.652,61.885 9.8,61.937Z" style="fill:rgb(0,64,78);fill-rule:nonzero;"/>
        <path d="M9.745,59.005L9.394,59.22C9.194,59.13 8.992,59.004 8.824,58.857L6.187,60.472C6.241,60.671 6.263,60.926 6.259,61.141L5.916,61.351L4.724,59.407L5.068,59.197C5.261,59.292 5.479,59.426 5.631,59.564L8.268,57.948C8.213,57.732 8.193,57.496 8.203,57.276L8.554,57.061L9.745,59.005Z" style="fill:rgb(0,64,78);fill-rule:nonzero;"/>
        <path d="M7.668,55.316L7.283,55.462C7.114,55.34 6.931,55.182 6.791,55L3.899,56.095C3.915,56.3 3.892,56.562 3.846,56.765L3.469,56.908L2.66,54.776L3.037,54.634C3.206,54.755 3.401,54.943 3.522,55.099L6.475,53.98L6.094,53.044C5.905,53.057 5.615,53.057 5.363,53.043L5.179,52.556L6.44,52.078L7.668,55.316Z" style="fill:rgb(0,64,78);fill-rule:nonzero;"/>
        <path d="M5.942,50.229L5.539,50.313C5.391,50.167 5.235,49.982 5.125,49.779L2.098,50.411C2.082,50.615 2.018,50.871 1.94,51.064L1.546,51.147L1.08,48.914L1.475,48.832C1.623,48.977 1.786,49.194 1.881,49.368L4.972,48.721L4.742,47.739C4.554,47.72 4.267,47.675 4.021,47.623L3.914,47.113L5.235,46.837L5.942,50.229Z" style="fill:rgb(0,64,78);fill-rule:nonzero;"/>
        <path d="M0.82,41.167L2.828,41.001C4.058,40.904 4.756,41.626 4.857,42.791C4.978,44.206 4.299,44.754 3.308,44.841L1.152,45.027C1.107,45.172 0.992,45.365 0.903,45.484L0.501,45.519L0.329,43.514L0.73,43.479C0.85,43.626 0.989,43.797 1.062,43.973L3.045,43.802C3.791,43.738 4.211,43.441 4.142,42.647C4.087,42.001 3.674,41.712 3.003,41.779L0.891,41.985C0.857,42.169 0.734,42.37 0.648,42.528L0.247,42.563L0.094,40.786L0.495,40.751C0.604,40.861 0.758,41.022 0.82,41.167Z" style="fill:rgb(0,64,78);fill-rule:nonzero;"/>
        <path d="M4.567,34.065L4.156,34.057C4.035,33.921 3.907,33.737 3.877,33.579L1.295,33.95L1.294,33.958L4.546,35.169L4.533,35.903L1.196,37.049L1.196,37.057L3.791,37.373C3.867,37.193 3.985,37.037 4.104,36.905L4.514,36.913L4.483,38.584L4.072,38.578C3.975,38.464 3.871,38.337 3.791,38.201L0.7,37.632C0.622,37.82 0.512,37.999 0.402,38.163L0,38.156L0.032,36.389L3.005,35.323L3.005,35.307L0.073,34.18L0.105,32.413L0.517,32.42C0.612,32.588 0.724,32.764 0.786,32.97L3.898,32.435C3.966,32.31 4.075,32.178 4.192,32.078L4.604,32.085L4.567,34.065Z" style="fill:rgb(0,64,78);fill-rule:nonzero;"/>
        <path d="M3.032,28.808C2.992,29.145 2.682,29.378 2.331,29.336C1.98,29.294 1.734,28.994 1.774,28.657C1.814,28.32 2.125,28.08 2.476,28.122C2.828,28.164 3.072,28.471 3.032,28.808Z" style="fill:rgb(0,64,78);fill-rule:nonzero;"/>
        <path d="M2.633,21.082L4.59,21.56C5.788,21.855 6.222,22.762 5.949,23.898C5.618,25.279 4.8,25.586 3.832,25.355L1.729,24.85C1.64,24.974 1.47,25.12 1.348,25.204L0.956,25.109L1.426,23.153L1.817,23.248C1.885,23.425 1.961,23.63 1.976,23.82L3.911,24.286C4.639,24.46 5.13,24.311 5.316,23.536C5.468,22.906 5.167,22.501 4.51,22.352L2.441,21.879C2.351,22.044 2.17,22.195 2.04,22.318L1.647,22.225L2.063,20.49L2.456,20.584C2.524,20.723 2.62,20.924 2.633,21.082Z" style="fill:rgb(0,64,78);fill-rule:nonzero;"/>
        <path d="M5.837,13.59L9.245,15.324L8.819,16.161L4.802,16.676L7.187,17.738C7.324,17.614 7.498,17.507 7.697,17.387L8.064,17.574L7.194,19.283L6.828,19.097C6.807,18.865 6.794,18.637 6.822,18.456L4.091,17.021C3.939,17.175 3.743,17.306 3.551,17.43L3.192,17.247L4.001,15.657L7.585,15.196L5.501,14.251C5.371,14.379 5.193,14.475 5.011,14.56L4.652,14.376L5.414,12.878L5.774,13.062C5.808,13.248 5.843,13.416 5.837,13.59Z" style="fill:rgb(0,64,78);fill-rule:nonzero;"/>
        <path d="M10.886,13.046L10.582,12.769C10.613,12.552 10.678,12.322 10.772,12.12L8.487,10.037C8.311,10.144 8.072,10.236 7.864,10.292L7.567,10.021L9.103,8.335L9.401,8.607C9.364,8.818 9.295,9.065 9.204,9.25L11.49,11.333C11.682,11.22 11.905,11.134 12.118,11.083L12.422,11.36L10.886,13.046Z" style="fill:rgb(0,64,78);fill-rule:nonzero;"/>
        <path d="M15.763,4.297L16.49,8.353L15.661,8.858L12.377,6.353C12.246,6.365 12.092,6.324 11.939,6.302L11.729,5.957L13.42,4.927L13.63,5.27C13.558,5.439 13.477,5.595 13.365,5.76L15.673,7.561L15.687,7.553L15.015,4.753C14.851,4.787 14.627,4.769 14.459,4.766L14.249,4.421L15.69,3.542L15.9,3.887C15.867,4.013 15.837,4.175 15.763,4.297Z" style="fill:rgb(0,64,78);fill-rule:nonzero;"/>
        <path d="M20.175,6.564L20.062,6.168C20.2,6.018 20.371,5.841 20.566,5.717L19.722,2.751C19.514,2.742 19.25,2.68 19.056,2.632L18.946,2.245L22.224,1.312L22.535,2.403L22.042,2.544C21.92,2.433 21.741,2.236 21.658,2.089L20.717,2.356L21.075,3.614L21.849,3.394C21.858,3.254 21.921,3.1 21.965,2.993L22.374,2.877L22.726,4.111L22.316,4.227C22.228,4.15 22.074,4.04 22.002,3.932L21.228,4.152L21.617,5.521L22.558,5.253C22.552,5.058 22.598,4.814 22.644,4.63L23.145,4.487L23.469,5.627L20.175,6.564Z" style="fill:rgb(0,64,78);fill-rule:nonzero;"/>
        <path d="M30.205,4.786L30.147,4.304C29.549,4.439 29.476,2.794 28.703,2.746C29.286,2.53 29.613,2.096 29.564,1.547C29.488,0.679 28.843,0.372 27.704,0.472C27.075,0.527 26.331,0.624 26.15,0.641L25.592,0.69L25.627,1.092C25.817,1.182 26.04,1.278 26.257,1.325L26.528,4.407C26.306,4.492 26.096,4.625 25.949,4.755L25.984,5.164L28.107,4.978L28.071,4.569C27.929,4.482 27.744,4.366 27.566,4.316L27.465,3.168L27.716,3.145C28.487,3.079 28.474,5.012 29.496,4.922C29.74,4.901 30.014,4.861 30.205,4.786ZM27.772,2.522L27.411,2.554L27.29,1.177C27.367,1.154 27.508,1.133 27.571,1.128C28.161,1.076 28.466,1.305 28.507,1.772C28.54,2.149 28.339,2.472 27.772,2.522Z" style="fill:rgb(0,64,78);fill-rule:nonzero;"/>
        <path d="M33.934,4.946C33.516,4.927 33.077,4.857 32.743,4.743L32.804,3.428L33.324,3.452C33.418,3.662 33.501,3.914 33.54,4.104C33.686,4.186 33.918,4.262 34.202,4.275C34.557,4.291 34.863,4.166 34.881,3.779C34.924,2.859 32.71,3.103 32.778,1.607C32.815,0.834 33.528,0.266 34.742,0.323C35.097,0.339 35.528,0.408 35.84,0.489L35.781,1.754L35.27,1.73C35.168,1.512 35.078,1.244 35.047,1.061C34.947,1.007 34.72,0.957 34.531,0.947C34.137,0.929 33.893,1.09 33.877,1.427C33.838,2.265 36.08,2.106 36.012,3.568C35.975,4.374 35.211,5.005 33.934,4.946Z" style="fill:rgb(0,64,78);fill-rule:nonzero;"/>
        <path d="M38.358,5.24L38.433,4.835C38.633,4.746 38.862,4.679 39.083,4.653L39.636,1.609C39.452,1.517 39.248,1.363 39.09,1.218L39.162,0.821L41.405,1.229L41.333,1.625C41.134,1.706 40.888,1.779 40.684,1.8L40.13,4.843C40.329,4.946 40.519,5.089 40.676,5.243L40.602,5.648L38.358,5.24Z" style="fill:rgb(0,64,78);fill-rule:nonzero;"/>
        <path d="M47.498,4.63C47.485,4.386 47.47,4.061 47.5,3.834L46.796,3.554L45.626,6.497C45.799,6.619 45.958,6.815 46.089,7L45.937,7.382L43.81,6.536L43.962,6.154C44.191,6.112 44.435,6.076 44.644,6.106L45.814,3.163L45.11,2.884C44.987,3.065 44.736,3.31 44.565,3.464L44.11,3.283L44.612,2.022L48.462,3.553L47.96,4.814L47.498,4.63Z" style="fill:rgb(0,64,78);fill-rule:nonzero;"/>
        <path d="M53.45,6.791L52.548,6.087L49.058,8.233C48.918,8.207 48.739,8.193 48.585,8.198L48.332,8.522L49.644,9.547L49.897,9.224C49.852,9.062 49.795,8.893 49.699,8.734L50.168,8.454L51.443,9.449L51.284,9.974C51.113,9.922 50.922,9.898 50.755,9.894L50.502,10.217L52.063,11.438L52.316,11.113C52.297,10.983 52.247,10.83 52.192,10.683L53.45,6.791ZM52.29,7.033C52.217,7.216 52.139,7.405 52.075,7.616L51.66,8.89L50.653,8.103L51.82,7.365C51.998,7.253 52.151,7.133 52.284,7.028L52.29,7.033Z" style="fill:rgb(0,64,78);fill-rule:nonzero;"/>
        <path d="M57.851,13.933C57.975,13.722 58.142,13.443 58.293,13.271L57.861,12.649L55.259,14.454C55.335,14.65 55.36,14.902 55.366,15.128L55.028,15.363L53.724,13.483L54.062,13.248C54.276,13.34 54.499,13.445 54.656,13.585L57.258,11.78L56.827,11.158C56.624,11.241 56.279,11.307 56.052,11.34L55.773,10.938L56.888,10.165L59.249,13.568L58.134,14.341L57.851,13.933Z" style="fill:rgb(0,64,78);fill-rule:nonzero;"/>
        <path d="M56.564,18.28L56.946,18.126C57.128,18.25 57.307,18.408 57.446,18.581L60.318,17.433C60.298,17.228 60.32,16.973 60.359,16.762L60.733,16.612L61.581,18.729L61.207,18.878C61.032,18.752 60.84,18.583 60.713,18.421L57.842,19.57C57.86,19.792 57.84,20.03 57.793,20.244L57.412,20.396L56.564,18.28Z" style="fill:rgb(0,64,78);fill-rule:nonzero;"/>
        <path d="M58.367,24.051C58.274,23.643 58.224,23.202 58.246,22.849L59.529,22.557L59.644,23.065C59.467,23.21 59.247,23.357 59.073,23.445C59.034,23.608 59.022,23.853 59.085,24.13C59.164,24.477 59.367,24.738 59.744,24.652C60.642,24.448 59.817,22.378 61.277,22.046C62.031,21.875 62.769,22.411 63.039,23.596C63.117,23.942 63.165,24.376 63.171,24.698L61.936,24.979L61.822,24.479C62.006,24.324 62.24,24.166 62.408,24.087C62.433,23.976 62.423,23.744 62.381,23.559C62.293,23.175 62.072,22.982 61.743,23.057C60.925,23.243 61.677,25.362 60.249,25.686C59.463,25.865 58.65,25.297 58.367,24.051Z" style="fill:rgb(0,64,78);fill-rule:nonzero;"/>
        <path d="M61.255,28.808C61.215,28.471 61.461,28.171 61.813,28.129C62.164,28.087 62.472,28.32 62.513,28.657C62.553,28.994 62.309,29.302 61.958,29.344C61.606,29.386 61.295,29.146 61.255,28.808Z" style="fill:rgb(0,64,78);fill-rule:nonzero;"/>
        <path d="M59.623,31.996L60.034,31.979C60.156,32.146 60.28,32.354 60.355,32.573L63.445,32.441C63.494,32.242 63.599,32.001 63.707,31.823L64.109,31.806L64.206,34.084L63.803,34.101C63.681,33.933 63.556,33.693 63.49,33.506L60.335,33.64L60.401,34.647C60.585,34.696 60.861,34.787 61.095,34.878L61.117,35.399L59.769,35.457L59.623,31.996Z" style="fill:rgb(0,64,78);fill-rule:nonzero;"/>
        <path d="M63.409,41.93L61.396,41.836C60.164,41.778 59.564,40.971 59.612,39.804C59.672,38.385 60.416,37.926 61.411,37.968L63.571,38.059C63.634,37.92 63.773,37.744 63.877,37.638L64.279,37.655L64.195,39.665L63.793,39.648C63.692,39.486 63.577,39.299 63.526,39.116L61.539,39.032C60.791,39 60.335,39.242 60.303,40.038C60.275,40.685 60.647,41.024 61.322,41.044L63.442,41.11C63.5,40.931 63.647,40.748 63.752,40.602L64.155,40.619L64.081,42.401L63.678,42.384C63.584,42.261 63.452,42.082 63.409,41.93Z" style="fill:rgb(0,64,78);fill-rule:nonzero;"/>
        <path d="M63.797,45.195L63.4,45.127C63.254,45.295 63.104,45.502 63.015,45.679L59.964,45.168C59.935,44.948 59.865,44.719 59.773,44.52L59.367,44.453L59.265,45.059C59.166,45.659 59.059,46.193 58.996,46.567C58.739,48.099 59.382,48.792 60.064,48.906C60.55,48.988 61.069,48.729 61.265,48.058C61.314,48.619 61.655,48.917 62.069,48.986C62.799,49.108 63.255,48.625 63.45,47.464C63.546,46.888 63.634,46.167 63.698,45.787L63.797,45.195ZM61.09,46.414L61.025,46.802C60.912,47.479 60.613,47.87 60.158,47.793C59.777,47.729 59.487,47.417 59.588,46.818C59.633,46.545 59.702,46.333 59.776,46.193L61.09,46.414ZM62.932,46.721C62.922,46.88 62.899,47.02 62.866,47.214C62.768,47.798 62.449,47.96 62.076,47.898C61.703,47.835 61.461,47.587 61.57,46.933C61.598,46.77 61.622,46.623 61.65,46.507L62.932,46.721Z" style="fill:rgb(0,64,78);fill-rule:nonzero;"/>
        <path d="M58.147,50.702L58.537,50.834C58.582,51.033 58.631,51.274 58.622,51.503L61.544,52.493C61.67,52.327 61.87,52.145 62.02,52.012L62.401,52.142L61.308,55.37L60.233,55.005L60.397,54.52C60.558,54.483 60.822,54.447 60.99,54.462L61.304,53.536L60.065,53.117L59.807,53.878C59.916,53.965 60.008,54.105 60.071,54.202L59.934,54.605L58.719,54.194L58.856,53.79C58.969,53.761 59.148,53.698 59.277,53.7L59.535,52.938L58.187,52.481L57.873,53.408C58.037,53.513 58.212,53.689 58.338,53.832L58.171,54.325L57.049,53.945L58.147,50.702Z" style="fill:rgb(0,64,78);fill-rule:nonzero;"/>
        <path d="M54.918,57.909C55.701,56.612 56.76,56.338 57.943,57.053C59.33,57.891 59.558,59.2 58.836,60.396C58.567,60.84 58.294,61.165 58.056,61.4L56.789,60.633L57.066,60.174C57.321,60.199 57.598,60.264 57.808,60.345C57.956,60.26 58.117,60.089 58.239,59.887C58.594,59.299 58.339,58.657 57.487,58.143C56.677,57.653 55.974,57.799 55.447,58.67C55.28,58.948 55.145,59.299 55.105,59.634L54.49,59.428C54.473,58.949 54.62,58.402 54.918,57.909Z" style="fill:rgb(0,64,78);fill-rule:nonzero;"/>
        <path d="M52.893,60.861L53.175,61.16C53.122,61.357 53.052,61.592 52.936,61.792L55.053,64.036C55.242,63.949 55.504,63.881 55.698,63.834L55.975,64.127L53.495,66.466L52.716,65.641L53.089,65.289C53.248,65.331 53.498,65.423 53.64,65.516L54.351,64.845L53.454,63.894L52.868,64.446C52.924,64.574 52.94,64.74 52.95,64.855L52.64,65.147L51.76,64.213L52.07,63.92C52.183,63.95 52.371,63.976 52.485,64.039L53.07,63.487L52.094,62.452L51.382,63.123C51.477,63.292 51.549,63.53 51.593,63.714L51.214,64.072L50.401,63.21L52.893,60.861Z" style="fill:rgb(0,64,78);fill-rule:nonzero;"/>
        <path d="M46.358,69.878L44.678,66.443L45.521,66.03L49.041,68.034L47.773,65.751C47.588,65.769 47.387,65.75 47.155,65.725L46.974,65.356L48.697,64.512L48.877,64.882C48.754,65.079 48.627,65.269 48.497,65.397L49.817,68.185C50.031,68.154 50.266,68.167 50.494,68.184L50.67,68.545L49.069,69.33L45.928,67.544L47.024,69.552C47.206,69.527 47.406,69.558 47.602,69.599L47.779,69.961L46.269,70.7L46.092,70.338C46.176,70.169 46.25,70.014 46.358,69.878Z" style="fill:rgb(0,64,78);fill-rule:nonzero;"/>
        <path d="M40.967,67.43C41.375,67.34 41.817,67.292 42.17,67.316L42.455,68.601L41.946,68.712C41.802,68.535 41.656,68.314 41.569,68.139C41.406,68.1 41.161,68.086 40.884,68.149C40.537,68.226 40.275,68.426 40.358,68.803C40.557,69.704 42.632,68.889 42.956,70.351C43.123,71.106 42.583,71.84 41.396,72.104C41.05,72.179 40.615,72.226 40.293,72.23L40.019,70.994L40.52,70.882C40.674,71.068 40.831,71.301 40.909,71.469C41.019,71.497 41.252,71.487 41.437,71.446C41.822,71.361 42.015,71.141 41.942,70.812C41.761,69.993 39.638,70.733 39.321,69.303C39.147,68.517 39.719,67.707 40.967,67.43Z" style="fill:rgb(0,64,78);fill-rule:nonzero;"/>
        <path d="M36.892,68.22L36.925,68.629C36.754,68.768 36.55,68.891 36.343,68.974L36.591,72.057C36.793,72.099 37.03,72.195 37.22,72.294L37.252,72.697L34.98,72.879L34.947,72.478C35.118,72.349 35.337,72.216 35.529,72.142L35.281,69.059C35.064,69.011 34.842,68.92 34.652,68.813L34.619,68.403L36.892,68.22Z" style="fill:rgb(0,64,78);fill-rule:nonzero;"/>
        <path d="M31.043,68.36C31.461,68.371 31.902,68.43 32.238,68.538L32.207,69.853L31.687,69.84C31.588,69.632 31.5,69.383 31.458,69.193C31.309,69.115 31.074,69.044 30.791,69.038C30.435,69.028 30.132,69.16 30.122,69.547C30.1,70.468 32.309,70.176 32.272,71.673C32.254,72.445 31.553,73.028 30.338,72.999C29.983,72.991 29.55,72.931 29.236,72.857L29.267,71.591L29.78,71.603C29.885,71.82 29.981,72.085 30.017,72.267C30.118,72.319 30.345,72.366 30.535,72.372C30.929,72.38 31.17,72.213 31.178,71.876C31.199,71.039 28.96,71.247 28.996,69.783C29.015,68.977 29.765,68.33 31.043,68.36Z" style="fill:rgb(0,64,78);fill-rule:nonzero;"/>
        <path d="M25.401,69.957C25.737,70.005 25.962,70.321 25.913,70.67C25.861,71.022 25.557,71.26 25.221,71.211C24.884,71.163 24.651,70.847 24.702,70.497C24.752,70.147 25.065,69.909 25.401,69.957Z" style="fill:rgb(0,64,78);fill-rule:nonzero;"/>
        <path d="M93.73,65.479L93.73,60.883L92.291,60.883L92.291,65.559C92.291,66.645 91.707,67.241 90.609,67.241C89.408,67.241 88.825,66.68 88.825,65.559L88.825,60.883L87.397,60.883L87.397,65.479C87.397,66.863 87.649,67.492 88.425,68.029C88.997,68.416 89.614,68.577 90.564,68.577C91.502,68.577 92.142,68.406 92.691,68.029C93.479,67.48 93.73,66.863 93.73,65.479ZM103.342,68.497L103.342,60.883L101.983,60.883L101.983,66.486L101.915,66.348L101.847,66.155C101.834,66.131 101.812,66.085 101.777,66.005C101.744,65.925 101.709,65.869 101.697,65.845L98.529,60.883L96.872,60.883L96.872,68.428L98.243,68.428L98.243,62.895C98.277,63.021 98.3,63.068 98.346,63.159C98.357,63.169 98.391,63.227 98.437,63.319C98.529,63.478 98.575,63.582 98.597,63.616L101.834,68.497L103.342,68.497ZM113.448,64.632C113.448,63.65 113.083,62.688 112.433,61.992C111.689,61.203 110.797,60.883 109.368,60.883L106.567,60.883L106.567,68.427L109.355,68.427C110.717,68.427 111.712,68.062 112.41,67.321C113.071,66.612 113.448,65.639 113.448,64.632ZM111.896,64.644C111.896,66.256 110.935,67.161 109.218,67.161L108.075,67.161L108.075,62.151L109.218,62.151C110.042,62.151 110.625,62.299 111.025,62.596C111.563,62.998 111.896,63.787 111.896,64.644ZM121.772,60.883L120.333,60.883L120.333,68.428L121.772,68.428L121.772,60.883ZM131.462,68.497L131.462,60.883L130.103,60.883L130.103,66.486L130.035,66.348L129.965,66.155C129.955,66.131 129.932,66.085 129.897,66.005C129.862,65.925 129.828,65.869 129.817,65.845L126.648,60.883L124.993,60.883L124.993,68.428L126.362,68.428L126.362,62.895C126.397,63.021 126.419,63.068 126.465,63.159C126.478,63.169 126.512,63.227 126.558,63.319C126.648,63.478 126.694,63.582 126.717,63.616L129.955,68.497L131.462,68.497ZM139.771,62.105L139.771,60.883L133.806,60.883L133.806,62.105L136.068,62.105L136.068,68.427L137.508,68.427L137.508,62.105L139.771,62.105ZM146.817,68.427L146.817,67.206L143.513,67.206L143.513,65.193L146.097,65.193L146.097,63.97L143.513,63.97L143.513,62.105L146.668,62.105L146.668,60.883L142.073,60.883L142.073,68.427L146.817,68.427ZM154.988,68.427L153.114,65.193C153.744,65.021 154.005,64.862 154.292,64.496C154.565,64.13 154.703,63.662 154.703,63.078C154.703,62.369 154.498,61.82 154.085,61.443C153.641,61.02 153.138,60.883 152.04,60.883L149.524,60.883L149.524,68.427L150.963,68.427L150.963,65.41L151.685,65.41L153.412,68.427L154.988,68.427ZM153.217,63.113C153.217,63.868 152.817,64.187 151.902,64.187L150.963,64.187L150.963,62.105L151.902,62.105C152.84,62.105 153.217,62.391 153.217,63.113ZM163.586,68.427L160.854,60.883L159.562,60.883L156.829,68.427L158.338,68.427L158.956,66.564L161.482,66.564L162.077,68.427L163.586,68.427ZM161.093,65.342L159.345,65.342L160.213,62.61L161.093,65.342ZM171.419,68.427L168.687,64.553L171.283,60.883L169.625,60.883L167.257,64.405L167.257,60.883L165.818,60.883L165.818,68.427L167.257,68.427L167.257,64.839L169.773,68.427L171.419,68.427ZM179.079,62.105L179.079,60.883L173.112,60.883L173.112,62.105L175.375,62.105L175.375,68.427L176.815,68.427L176.815,62.105L179.079,62.105ZM182.803,60.883L181.363,60.883L181.363,68.428L182.803,68.428L182.803,60.883ZM191.644,60.883L190.134,60.883L188.488,65.983L188.442,66.075C188.419,66.131 188.409,66.165 188.409,66.268L188.419,66.348L188.385,66.211L188.362,66.085L188.339,65.983L186.612,60.883L185.036,60.883L187.836,68.645L188.842,68.645L191.644,60.883ZM198.66,68.427L198.66,67.206L195.355,67.206L195.355,65.193L197.939,65.193L197.939,63.97L195.355,63.97L195.355,62.105L198.512,62.105L198.512,60.883L193.917,60.883L193.917,68.427L198.66,68.427ZM210.425,61.385C209.922,61.145 209.717,61.066 209.351,60.952C208.883,60.814 208.437,60.757 207.934,60.757C207.053,60.757 206.583,60.883 206.034,61.259C205.795,61.431 205.601,61.626 205.476,61.82C205.293,62.105 205.179,62.494 205.179,62.872C205.179,63.695 205.59,64.199 206.927,64.964L208.094,65.627C208.586,65.903 208.757,66.12 208.757,66.439C208.757,66.897 208.322,67.195 207.658,67.195C207.36,67.195 206.949,67.115 206.571,66.977C206.274,66.863 206.047,66.749 205.497,66.452L204.893,67.778C205.109,67.879 205.28,67.959 205.384,68.005C206.172,68.371 206.424,68.462 206.961,68.531C207.178,68.565 207.406,68.577 207.636,68.577C209.306,68.577 210.287,67.789 210.287,66.439C210.287,65.914 210.094,65.411 209.773,65.09C209.42,64.736 208.665,64.255 207.51,63.637C206.972,63.351 206.788,63.158 206.788,62.837C206.788,62.414 207.224,62.139 207.898,62.139C208.402,62.139 209.054,62.323 209.854,62.676L210.425,61.385ZM218.514,60.883L216.937,60.883L215.348,63.834L213.84,60.883L212.262,60.883L214.56,65.194L214.56,68.427L215.998,68.427L215.998,65.194L218.514,60.883ZM225.411,61.385C224.908,61.145 224.703,61.066 224.338,60.952C223.869,60.814 223.424,60.757 222.92,60.757C222.038,60.757 221.57,60.883 221.021,61.259C220.781,61.431 220.588,61.626 220.463,61.82C220.279,62.105 220.165,62.494 220.165,62.872C220.165,63.695 220.576,64.199 221.913,64.964L223.08,65.627C223.572,65.903 223.743,66.12 223.743,66.439C223.743,66.897 223.31,67.195 222.646,67.195C222.348,67.195 221.936,67.115 221.559,66.977C221.262,66.863 221.033,66.749 220.484,66.452L219.88,67.778C220.097,67.879 220.268,67.959 220.37,68.005C221.158,68.371 221.41,68.462 221.947,68.531C222.164,68.565 222.394,68.577 222.622,68.577C224.293,68.577 225.274,67.789 225.274,66.439C225.274,65.914 225.08,65.411 224.761,65.09C224.406,64.736 223.652,64.255 222.496,63.637C221.958,63.351 221.775,63.158 221.775,62.837C221.775,62.414 222.211,62.139 222.886,62.139C223.39,62.139 224.04,62.323 224.841,62.676L225.411,61.385ZM233.323,62.105L233.323,60.883L227.356,60.883L227.356,62.105L229.62,62.105L229.62,68.427L231.06,68.427L231.06,62.105L233.323,62.105ZM240.368,68.427L240.368,67.206L237.064,67.206L237.064,65.193L239.648,65.193L239.648,63.97L237.064,63.97L237.064,62.105L240.221,62.105L240.221,60.883L235.625,60.883L235.625,68.427L240.368,68.427ZM250.952,68.427L250.952,60.883L249.228,60.883L247.135,66.268C247.066,66.452 247.044,66.498 246.997,66.851C246.964,66.565 246.929,66.486 246.849,66.268L244.836,60.883L243.11,60.883L243.11,68.427L244.412,68.427L244.412,62.849C244.527,63.491 244.538,63.616 244.698,64.05L246.276,68.427L247.569,68.427L249.297,63.97C249.536,63.341 249.525,63.285 249.582,62.895L249.582,68.427L250.952,68.427ZM258.954,68.427L258.954,67.206L255.65,67.206L255.65,65.193L258.234,65.193L258.234,63.97L255.65,63.97L255.65,62.105L258.807,62.105L258.807,60.883L254.212,60.883L254.212,68.427L258.954,68.427Z" style="fill:rgb(77,141,155);fill-rule:nonzero;"/>
        <path d="M109.253,49.449L107.814,49.449L107.814,56.994L109.253,56.994L109.253,49.449ZM118.943,57.063L118.943,49.449L117.584,49.449L117.584,55.052L117.515,54.915L117.447,54.72C117.435,54.697 117.412,54.652 117.378,54.572C117.344,54.492 117.309,54.435 117.298,54.412L114.13,49.449L112.473,49.449L112.473,56.995L113.844,56.995L113.844,51.462C113.878,51.588 113.901,51.633 113.947,51.725C113.958,51.736 113.992,51.793 114.038,51.885C114.13,52.045 114.175,52.148 114.198,52.182L117.435,57.063L118.943,57.063ZM127.063,49.952C126.56,49.712 126.355,49.632 125.989,49.518C125.521,49.381 125.075,49.324 124.571,49.324C123.69,49.324 123.222,49.449 122.673,49.826C122.433,49.998 122.239,50.192 122.113,50.386C121.931,50.671 121.816,51.06 121.816,51.438C121.816,52.261 122.228,52.764 123.564,53.531L124.732,54.194C125.224,54.468 125.395,54.686 125.395,55.006C125.395,55.463 124.96,55.761 124.297,55.761C123.999,55.761 123.587,55.681 123.21,55.544C122.913,55.429 122.685,55.315 122.136,55.017L121.531,56.343C121.748,56.446 121.919,56.526 122.022,56.572C122.81,56.937 123.062,57.029 123.599,57.097C123.816,57.131 124.045,57.143 124.274,57.143C125.944,57.143 126.926,56.355 126.926,55.006C126.926,54.48 126.732,53.977 126.412,53.656C126.058,53.302 125.304,52.822 124.148,52.204C123.61,51.918 123.427,51.724 123.427,51.403C123.427,50.98 123.862,50.706 124.537,50.706C125.041,50.706 125.692,50.889 126.492,51.243L127.063,49.952ZM134.975,50.671L134.975,49.449L129.007,49.449L129.007,50.671L131.272,50.671L131.272,56.994L132.711,56.994L132.711,50.671L134.975,50.671ZM138.699,49.449L137.26,49.449L137.26,56.994L138.699,56.994L138.699,49.449ZM146.933,50.671L146.933,49.449L140.966,49.449L140.966,50.671L143.23,50.671L143.23,56.994L144.669,56.994L144.669,50.671L146.933,50.671ZM155.47,54.046L155.47,49.449L154.031,49.449L154.031,54.126C154.031,55.212 153.448,55.807 152.35,55.807C151.149,55.807 150.565,55.246 150.565,54.126L150.565,49.449L149.138,49.449L149.138,54.046C149.138,55.429 149.389,56.058 150.166,56.595C150.737,56.983 151.355,57.143 152.304,57.143C153.242,57.143 153.883,56.972 154.431,56.595C155.219,56.046 155.47,55.429 155.47,54.046ZM163.642,50.671L163.642,49.449L157.675,49.449L157.675,50.671L159.939,50.671L159.939,56.994L161.378,56.994L161.378,50.671L163.642,50.671ZM175.053,50.671L175.053,49.449L170.378,49.449L170.378,56.994L171.817,56.994L171.817,53.827L174.469,53.827L174.469,52.617L171.817,52.617L171.817,50.671L175.053,50.671ZM182.272,48.683C182.272,48.329 181.986,48.055 181.643,48.055C181.301,48.055 181.027,48.329 181.027,48.683C181.027,49.025 181.301,49.299 181.643,49.299C181.986,49.299 182.272,49.025 182.272,48.683ZM179.94,48.671C179.94,48.329 179.665,48.043 179.311,48.043C178.967,48.043 178.693,48.329 178.693,48.671C178.693,49.014 178.967,49.288 179.311,49.288C179.665,49.288 179.94,49.014 179.94,48.671ZM183.701,54.045L183.701,49.448L182.26,49.448L182.26,54.126C182.26,55.212 181.678,55.807 180.581,55.807C179.379,55.807 178.796,55.246 178.796,54.126L178.796,49.448L177.368,49.448L177.368,54.045C177.368,55.429 177.619,56.058 178.396,56.595C178.967,56.983 179.585,57.143 180.535,57.143C181.472,57.143 182.112,56.972 182.66,56.595C183.449,56.046 183.701,55.429 183.701,54.045ZM192.271,56.994L190.398,53.759C191.026,53.587 191.289,53.428 191.574,53.062C191.848,52.697 191.986,52.227 191.986,51.644C191.986,50.935 191.78,50.386 191.369,50.009C190.923,49.587 190.421,49.449 189.322,49.449L186.808,49.449L186.808,56.994L188.247,56.994L188.247,53.976L188.968,53.976L190.695,56.994L192.271,56.994ZM190.501,51.678C190.501,52.433 190.1,52.754 189.185,52.754L188.247,52.754L188.247,50.671L189.185,50.671C190.123,50.671 190.501,50.957 190.501,51.678ZM206.998,56.994L206.998,49.449L205.273,49.449L203.18,54.835C203.111,55.018 203.088,55.063 203.043,55.418C203.008,55.132 202.974,55.052 202.894,54.835L200.881,49.449L199.156,49.449L199.156,56.994L200.458,56.994L200.458,51.417C200.572,52.056 200.584,52.182 200.744,52.617L202.322,56.994L203.614,56.994L205.341,52.537C205.581,51.908 205.57,51.851 205.627,51.462L205.627,56.994L206.998,56.994ZM216.479,54.046L216.479,49.449L215.039,49.449L215.039,54.126C215.039,55.212 214.456,55.807 213.358,55.807C212.157,55.807 211.573,55.246 211.573,54.126L211.573,49.449L210.146,49.449L210.146,54.046C210.146,55.429 210.397,56.058 211.174,56.595C211.745,56.983 212.363,57.143 213.313,57.143C214.25,57.143 214.891,56.972 215.439,56.595C216.228,56.046 216.479,55.429 216.479,54.046ZM224.111,56.994L224.111,55.772L221.024,55.772L221.024,49.449L219.585,49.449L219.585,56.994L224.111,56.994ZM230.781,50.671L230.781,49.449L224.814,49.449L224.814,50.671L227.078,50.671L227.078,56.994L228.518,56.994L228.518,50.671L230.781,50.671ZM234.504,49.449L233.065,49.449L233.065,56.994L234.504,56.994L234.504,49.449ZM245.566,56.994L245.566,49.449L243.841,49.449L241.748,54.835C241.68,55.018 241.657,55.063 241.611,55.418C241.577,55.132 241.542,55.052 241.462,54.835L239.449,49.449L237.724,49.449L237.724,56.994L239.026,56.994L239.026,51.417C239.141,52.056 239.152,52.182 239.313,52.617L240.89,56.994L242.183,56.994L243.91,52.537C244.15,51.908 244.138,51.851 244.196,51.462L244.196,56.994L245.566,56.994ZM253.568,56.994L253.568,55.772L250.264,55.772L250.264,53.759L252.848,53.759L252.848,52.537L250.264,52.537L250.264,50.671L253.42,50.671L253.42,49.449L248.825,49.449L248.825,56.994L253.568,56.994ZM263.122,53.199C263.122,52.215 262.757,51.255 262.105,50.557C261.363,49.769 260.471,49.449 259.04,49.449L256.241,49.449L256.241,56.994L259.03,56.994C260.39,56.994 261.385,56.629 262.083,55.886C262.745,55.178 263.122,54.205 263.122,53.199ZM261.569,53.21C261.569,54.823 260.608,55.727 258.893,55.727L257.747,55.727L257.747,50.717L258.893,50.717C259.716,50.717 260.299,50.866 260.699,51.163C261.237,51.563 261.569,52.353 261.569,53.21ZM267.179,49.449L265.74,49.449L265.74,56.994L267.179,56.994L267.179,49.449ZM276.168,56.994L273.437,49.449L272.145,49.449L269.411,56.994L270.92,56.994L271.538,55.131L274.065,55.131L274.659,56.994L276.168,56.994ZM273.676,53.909L271.927,53.909L272.796,51.176L273.676,53.909ZM282.961,56.994L282.961,55.772L279.874,55.772L279.874,49.449L278.436,49.449L278.436,56.994L282.961,56.994ZM290.007,56.994L290.007,55.772L286.702,55.772L286.702,53.759L289.286,53.759L289.286,52.537L286.702,52.537L286.702,50.671L289.858,50.671L289.858,49.449L285.263,49.449L285.263,56.994L290.007,56.994Z" style="fill:rgb(77,141,155);fill-rule:nonzero;"/>
        <path d="M82.252,42.612L82.252,38.016L80.813,38.016L80.813,42.692C80.813,43.778 80.229,44.374 79.13,44.374C77.929,44.374 77.346,43.813 77.346,42.692L77.346,38.016L75.918,38.016L75.918,42.612C75.918,43.996 76.17,44.625 76.946,45.162C77.519,45.549 78.135,45.709 79.085,45.709C80.023,45.709 80.664,45.539 81.212,45.162C82.001,44.613 82.252,43.996 82.252,42.612ZM91.863,45.629L91.863,38.016L90.504,38.016L90.504,43.619L90.436,43.481L90.367,43.288C90.356,43.264 90.333,43.218 90.298,43.138C90.264,43.058 90.231,43.001 90.218,42.978L87.05,38.016L85.394,38.016L85.394,45.561L86.764,45.561L86.764,40.028C86.798,40.154 86.821,40.201 86.867,40.292C86.878,40.302 86.913,40.36 86.959,40.452C87.05,40.611 87.095,40.714 87.118,40.749L90.356,45.629L91.863,45.629ZM96.544,38.016L95.106,38.016L95.106,45.561L96.544,45.561L96.544,38.016ZM105.386,38.016L103.877,38.016L102.23,43.115L102.185,43.208C102.162,43.264 102.15,43.298 102.15,43.401L102.162,43.481L102.127,43.344L102.105,43.218L102.082,43.115L100.355,38.016L98.776,38.016L101.579,45.778L102.585,45.778L105.386,38.016ZM112.402,45.56L112.402,44.338L109.098,44.338L109.098,42.326L111.682,42.326L111.682,41.103L109.098,41.103L109.098,39.238L112.253,39.238L112.253,38.016L107.658,38.016L107.658,45.56L112.402,45.56ZM120.573,45.56L118.7,42.326C119.328,42.154 119.591,41.995 119.876,41.628C120.15,41.263 120.288,40.794 120.288,40.21C120.288,39.501 120.082,38.953 119.671,38.576C119.225,38.153 118.723,38.016 117.624,38.016L115.11,38.016L115.11,45.56L116.549,45.56L116.549,42.542L117.27,42.542L118.997,45.56L120.573,45.56ZM118.803,40.246C118.803,41.001 118.402,41.32 117.487,41.32L116.549,41.32L116.549,39.238L117.487,39.238C118.425,39.238 118.803,39.524 118.803,40.246ZM127.919,38.518C127.417,38.278 127.211,38.198 126.846,38.084C126.377,37.947 125.931,37.89 125.428,37.89C124.547,37.89 124.078,38.016 123.53,38.392C123.29,38.564 123.096,38.758 122.97,38.953C122.787,39.238 122.673,39.626 122.673,40.004C122.673,40.828 123.084,41.332 124.421,42.097L125.588,42.76C126.08,43.036 126.252,43.252 126.252,43.572C126.252,44.03 125.817,44.328 125.153,44.328C124.856,44.328 124.444,44.248 124.067,44.11C123.77,43.996 123.541,43.881 122.993,43.584L122.387,44.911C122.604,45.012 122.776,45.092 122.878,45.138C123.667,45.503 123.918,45.595 124.455,45.664C124.673,45.698 124.901,45.709 125.13,45.709C126.8,45.709 127.782,44.921 127.782,43.572C127.782,43.046 127.588,42.543 127.268,42.223C126.914,41.869 126.16,41.388 125.004,40.77C124.467,40.484 124.284,40.291 124.284,39.97C124.284,39.546 124.718,39.272 125.393,39.272C125.897,39.272 126.549,39.456 127.348,39.809L127.919,38.518ZM131.97,38.016L130.531,38.016L130.531,45.561L131.97,45.561L131.97,38.016ZM140.205,39.238L140.205,38.016L134.238,38.016L134.238,39.238L136.502,39.238L136.502,45.56L137.941,45.56L137.941,39.238L140.205,39.238ZM145.906,37.249C145.906,36.895 145.621,36.621 145.278,36.621C144.936,36.621 144.662,36.895 144.662,37.249C144.662,37.592 144.936,37.866 145.278,37.866C145.621,37.866 145.906,37.592 145.906,37.249ZM144.02,37.215C144.02,36.872 143.746,36.598 143.403,36.598C143.061,36.598 142.775,36.872 142.775,37.215C142.775,37.557 143.061,37.843 143.403,37.843C143.746,37.843 144.02,37.557 144.02,37.215ZM147.667,45.56L144.936,38.014L143.643,38.014L140.911,45.56L142.421,45.56L143.038,43.697L145.564,43.697L146.158,45.56L147.667,45.56ZM145.176,42.475L143.426,42.475L144.295,39.742L145.176,42.475ZM154.341,39.238L154.341,38.016L148.374,38.016L148.374,39.238L150.638,39.238L150.638,45.56L152.077,45.56L152.077,39.238L154.341,39.238ZM166.495,45.56L166.495,44.338L162.471,44.338L166.495,38.953L166.495,38.016L160.527,38.016L160.527,39.238L164.552,39.238L160.458,44.625L160.458,45.56L166.495,45.56ZM175.277,42.612L175.277,38.016L173.837,38.016L173.837,42.692C173.837,43.778 173.254,44.374 172.156,44.374C170.955,44.374 170.372,43.813 170.372,42.692L170.372,38.016L168.944,38.016L168.944,42.612C168.944,43.996 169.195,44.625 169.972,45.162C170.543,45.549 171.161,45.709 172.11,45.709C173.048,45.709 173.689,45.539 174.237,45.162C175.025,44.613 175.277,43.996 175.277,42.612ZM187.27,45.56L187.27,44.338L184.183,44.338L184.183,38.016L182.744,38.016L182.744,45.56L187.27,45.56ZM194.271,37.249C194.271,36.895 193.986,36.621 193.643,36.621C193.3,36.621 193.026,36.895 193.026,37.249C193.026,37.592 193.3,37.866 193.643,37.866C193.986,37.866 194.271,37.592 194.271,37.249ZM191.939,37.237C191.939,36.895 191.665,36.609 191.31,36.609C190.967,36.609 190.692,36.895 190.692,37.237C190.692,37.58 190.967,37.854 191.31,37.854C191.665,37.854 191.939,37.58 191.939,37.237ZM195.7,42.612L195.7,38.014L194.26,38.014L194.26,42.692C194.26,43.778 193.677,44.374 192.58,44.374C191.379,44.374 190.795,43.812 190.795,42.692L190.795,38.014L189.367,38.014L189.367,42.612C189.367,43.996 189.619,44.625 190.395,45.162C190.967,45.549 191.585,45.709 192.534,45.709C193.472,45.709 194.111,45.539 194.66,45.162C195.449,44.613 195.7,43.996 195.7,42.612ZM204.179,43.549C204.179,42.371 203.46,41.628 202.317,41.605C202.911,41.571 203.22,41.434 203.551,41.057C203.825,40.737 203.985,40.291 203.985,39.868C203.985,39.376 203.757,38.838 203.391,38.518C202.98,38.141 202.489,38.016 201.505,38.016L198.773,38.016L198.773,45.56L201.848,45.56C203.357,45.56 204.179,44.852 204.179,43.549ZM202.386,40.12C202.386,40.76 201.951,41.103 201.139,41.103L200.281,41.103L200.281,39.159L201.219,39.159C201.951,39.159 202.386,39.512 202.386,40.12ZM202.603,43.389C202.603,43.778 202.409,44.11 202.088,44.27C201.871,44.374 201.665,44.408 201.219,44.408L200.281,44.408L200.281,42.326L201.219,42.326C202.111,42.326 202.603,42.703 202.603,43.389ZM211.669,45.56L211.669,44.338L208.365,44.338L208.365,42.326L210.949,42.326L210.949,41.103L208.365,41.103L208.365,39.238L211.521,39.238L211.521,38.016L206.926,38.016L206.926,45.56L211.669,45.56ZM220.008,38.598C219.355,38.107 218.601,37.878 217.641,37.878C216.395,37.878 215.549,38.187 214.794,38.929C214.052,39.662 213.641,40.656 213.641,41.754C213.641,42.932 214.109,44.053 214.909,44.773C215.617,45.413 216.463,45.709 217.641,45.709C218.087,45.709 218.487,45.664 218.853,45.584C219.196,45.503 219.39,45.435 219.871,45.218L219.607,44.007C218.933,44.27 218.487,44.361 217.95,44.361C216.303,44.361 215.229,43.298 215.229,41.674C215.229,40.245 216.269,39.215 217.721,39.215C218.384,39.215 218.967,39.386 219.459,39.742L220.008,38.598ZM228.054,45.56L225.321,41.686L227.916,38.016L226.258,38.016L223.892,41.538L223.892,38.016L222.452,38.016L222.452,45.56L223.892,45.56L223.892,41.972L226.407,45.56L228.054,45.56Z" style="fill:rgb(0,64,78);fill-rule:nonzero;"/>
    </g>
</svg>
